<?xml version="1.0" standalone="no"?>
<!DOCTYPE svg PUBLIC "-//W3C//DTD SVG 20010904//EN"
 "http://www.w3.org/TR/2001/REC-SVG-20010904/DTD/svg10.dtd">
<svg version="1.0" xmlns="http://www.w3.org/2000/svg"
 width="16.000000pt" height="16.000000pt" viewBox="0 0 16.000000 16.000000"
 preserveAspectRatio="xMidYMid meet">
<metadata>
Created by potrace 1.11, written by Peter Selinger 2001-2013
</metadata>
<g transform="translate(0.000000,16.000000) scale(0.004360,-0.004360)"
fill="#000000" stroke="none">
<path d="M1630 3660 c-861 -106 -1525 -775 -1619 -1632 -74 -671 240 -1340
807 -1719 197 -132 417 -222 669 -276 117 -25 147 -27 353 -28 196 0 239 3
339 23 250 51 463 138 659 271 260 176 450 374 579 604 120 214 194 420 233
652 19 113 22 154 17 310 -6 194 -21 301 -66 465 -85 307 -239 568 -471 800
-277 277 -604 446 -995 516 -107 18 -399 27 -505 14z m471 -365 c120 -36 173
-60 265 -121 201 -133 345 -356 384 -596 15 -97 12 -157 -20 -378 -17 -113
-30 -211 -30 -217 0 -8 13 -13 33 -13 90 0 166 -50 186 -122 9 -31 11 -189 9
-583 -3 -521 -4 -541 -23 -575 -12 -21 -39 -44 -65 -57 l-44 -23 -911 0 -911
0 -44 23 c-24 12 -53 35 -64 50 -21 28 -21 41 -24 585 -3 632 -4 620 71 670
l41 27 697 3 698 3 5 27 c26 131 66 416 66 471 0 210 -166 426 -379 491 -76
24 -220 27 -297 6 -138 -37 -274 -147 -338 -274 -27 -53 -41 -101 -54 -177
-10 -57 -20 -107 -24 -110 -7 -7 -310 34 -321 44 -8 8 26 222 44 281 22 69
100 207 154 273 71 86 159 155 265 210 160 83 249 105 426 106 101 1 134 -3
205 -24z"/>
<path d="M1827 1620 c-79 -24 -137 -104 -137 -189 0 -67 13 -96 65 -148 l45
-44 0 -110 c0 -110 7 -142 39 -166 34 -27 101 -8 120 34 6 13 11 75 11 137 l0
114 35 26 c127 97 86 302 -70 345 -46 13 -69 13 -108 1z"/>
</g>
</svg>
