<?xml version="1.0" standalone="no"?>
<!DOCTYPE svg PUBLIC "-//W3C//DTD SVG 1.1//EN" "http://www.w3.org/Graphics/SVG/1.1/DTD/svg11.dtd" >
<svg xmlns="http://www.w3.org/2000/svg" xmlns:xlink="http://www.w3.org/1999/xlink" version="1.1">
<metadata>
Created by FontForge 20170104 at Thu Jan 23 03:04:40 2014
 By myTaste
Copyright (c) 2013 by Frank Hemmekam. All rights reserved.
</metadata>
<defs>
<font id="BaronNeueBlack" horiz-adv-x="1144" >
  <font-face 
    font-family="Baron Neue Black"
    font-weight="900"
    font-stretch="normal"
    units-per-em="2048"
    panose-1="2 11 0 0 0 0 0 0 0 0"
    ascent="1536"
    descent="-512"
    x-height="1407"
    cap-height="1434"
    bbox="-98.6667 -479 2039 1954.62"
    underline-thickness="102"
    underline-position="-204"
    unicode-range="U+000D-25FC"
  />
<missing-glyph horiz-adv-x="748" 
d="M68 0v1365h544v-1365h-544zM136 68h408v1229h-408v-1229z" />
    <glyph glyph-name=".notdef" horiz-adv-x="748" 
d="M68 0v1365h544v-1365h-544zM136 68h408v1229h-408v-1229z" />
    <glyph glyph-name="glyph1" horiz-adv-x="2048" 
 />
    <glyph glyph-name="glyph1" horiz-adv-x="2048" 
 />
    <glyph glyph-name="uni000D" unicode="&#xd;" horiz-adv-x="2048" 
 />
    <glyph glyph-name="space" unicode=" " horiz-adv-x="706" 
 />
    <glyph glyph-name="exclam" unicode="!" horiz-adv-x="565" 
d="M102 150q0 66 50.5 115.5t119.5 49.5q74 0 125.5 -49t51.5 -116q0 -68 -51.5 -117t-125.5 -49q-69 0 -119.5 49.5t-50.5 116.5zM117 432v965q0 14 13 25.5t32 11.5h227q18 0 30.5 -11.5t12.5 -25.5v-965q0 -14 -12.5 -25.5t-30.5 -11.5h-227q-19 0 -32 11.5t-13 25.5z
" />
    <glyph glyph-name="quotedbl" unicode="&#x22;" horiz-adv-x="651" 
d="M25 965v432q0 14 12.5 25.5t30.5 11.5h168q18 0 30.5 -11.5t12.5 -25.5v-432q0 -14 -12.5 -25.5t-30.5 -11.5h-168q-18 0 -30.5 11.5t-12.5 25.5zM358 965v432q0 14 12 25.5t31 11.5h164q19 0 32 -11.5t13 -25.5v-432q0 -14 -13 -25.5t-32 -11.5h-164q-19 0 -31 11.5
t-12 25.5z" />
    <glyph glyph-name="numbersign" unicode="#" horiz-adv-x="1339" 
d="M-18 328l55 198q3 8 17 16.5t26 8.5h151q11 41 31.5 108.5t28.5 94.5l22 73h-137q-24 0 -36.5 15.5t-4.5 34.5l-2 -3l53 193q3 9 16.5 18t26.5 9h154q15 51 45 156.5t45 156.5q3 9 16.5 18t26.5 9h205q23 0 37 -15.5t6 -32.5l2 3l-86 -295h137q14 51 44.5 156.5
t45.5 156.5q3 9 16.5 18t26.5 9h205q23 0 37 -15.5t6 -32.5l2 3l-86 -295h117q23 0 36.5 -15.5t6.5 -34.5l2 3l-57 -193q-3 -10 -16 -18.5t-25 -8.5h-134q-19 -54 -28 -88q-5 -17 -24.5 -80.5t-30.5 -107.5h118q24 0 37 -14t6 -33l2 2q-7 -25 -27.5 -92.5t-29.5 -104.5
q-3 -10 -16.5 -18t-26.5 -8h-135l-76 -258q-3 -10 -15 -18.5t-24 -8.5h-207q-22 0 -35 13.5t-10 29.5l68 242h-135q-43 -151 -74 -258q-3 -10 -16.5 -18.5t-24.5 -8.5h-205q-22 0 -35 15t-6 32l-2 -2l64 240h-133q-21 0 -33.5 15t-5.5 32zM502 526h176l96 328h-176z" />
    <glyph glyph-name="dollar" unicode="$" horiz-adv-x="1112" 
d="M78 412q0 15 11.5 24.5t31.5 9.5h225q18 0 30.5 -9.5t12.5 -24.5q3 -64 46.5 -98.5t107.5 -34.5t108.5 37.5t44.5 99.5q0 66 -48.5 109t-106.5 46q-115 0 -219 47q-118 56 -181 153t-63 226q0 164 94.5 279t237.5 154v139q0 14 12.5 25.5t30.5 11.5h190q18 0 30.5 -11.5
t12.5 -25.5v-139q141 -41 228 -148.5t90 -255.5q0 -17 -13 -28t-33 -11h-221q-18 0 -31.5 11t-13.5 28q-3 60 -45 93.5t-104 33.5q-67 0 -110.5 -40t-43.5 -116q0 -63 45 -99t109 -36q115 0 217 -47q120 -56 184 -162t64 -237q0 -162 -90 -270.5t-232 -145.5v-129
q0 -12 -12.5 -23.5t-30.5 -11.5h-190q-18 0 -30.5 11.5t-12.5 23.5v127q-149 35 -240 142.5t-92 271.5z" />
    <glyph glyph-name="percent" unicode="%" horiz-adv-x="1359" 
d="M-20 22.5q-10 18.5 4 38.5q172 220 528 679t528 679q3 3 16 9t19 6h215q26 0 36.5 -19.5t-3.5 -38.5q-172 -220 -528.5 -679t-528.5 -679q-3 -3 -16 -8.5t-19 -5.5h-215q-26 0 -36 18.5zM12 1137q0 131 96 224t230 93q133 0 228.5 -93t95.5 -224q0 -128 -96 -221
t-228 -93q-133 0 -229.5 93t-96.5 221zM252 1137q0 -38 26 -65.5t60 -27.5t60 27.5t26 65.5q0 39 -26 67.5t-60 28.5t-60 -28.5t-26 -67.5zM653 301q0 132 95.5 224.5t232.5 92.5q136 0 231 -92.5t95 -224.5q0 -134 -95 -226.5t-231 -92.5q-137 0 -232.5 93t-95.5 226z
M895 301q0 -38 25.5 -66t60.5 -28t61.5 28t26.5 66t-26 65t-62 27q-35 0 -60.5 -27t-25.5 -65z" />
    <glyph glyph-name="ampersand" unicode="&#x26;" horiz-adv-x="1337" 
d="M53 451q0 196 152 354q-107 101 -107 262q0 154 113 265.5t270 111.5q160 0 272.5 -111t112.5 -266q0 -87 -41.5 -166t-109.5 -135q22 -23 57.5 -61.5t63.5 -67.5v184q0 13 12.5 24t30.5 11h344q18 0 30.5 -11t12.5 -24v-186q0 -14 -12.5 -24.5t-30.5 -10.5h-129v-100
q0 -34 -13 -88l191 -189q9 -11 9 -27t-9 -24l-166 -164q-26 -20 -53 0l-131 129q-72 -75 -167 -114t-200 -39q-136 0 -243.5 52t-176.5 146q-82 130 -82 269zM360 469q0 -75 56.5 -129.5t148.5 -54.5q85 0 150 65l-283 275q-72 -61 -72 -156zM375 1067q0 -49 31.5 -84
t74.5 -35q45 0 77 35t32 84t-32 84t-77 35q-43 0 -74.5 -35t-31.5 -84z" />
    <glyph glyph-name="quotesingle" unicode="'" horiz-adv-x="339" 
d="M20 965v432q0 14 12.5 25.5t30.5 11.5h207q19 0 32 -11.5t13 -25.5v-432q0 -14 -13 -25.5t-32 -11.5h-207q-18 0 -30.5 11.5t-12.5 25.5z" />
    <glyph glyph-name="parenleft" unicode="(" horiz-adv-x="636" 
d="M84 721q0 359 180 692v-2q3 7 16.5 14t22.5 7h264q25 0 36.5 -17.5t-3.5 -36.5q-203 -311 -203 -655q0 -363 201 -670l-2 2q17 -20 6.5 -37.5t-37.5 -17.5h-270l-31 14q-180 337 -180 707z" />
    <glyph glyph-name="parenright" unicode=")" horiz-adv-x="630" 
d="M12.5 17.5q-10.5 17.5 7.5 37.5h-2q205 310 205 654q0 136 -41 288q-53 210 -162 381q-15 19 -4.5 36.5t39.5 17.5h269l32 -15q89 -175 133 -346v2q46 -170 46 -360q0 -361 -179 -695v2q-4 -7 -18 -13.5t-23 -6.5h-262q-30 0 -40.5 17.5z" />
    <glyph glyph-name="asterisk" unicode="*" horiz-adv-x="784" 
d="M39 1051v100q0 14 12.5 24.5t32.5 10.5h88l-78 76q-13 8 -12.5 26t12.5 29l70 69q12 8 28.5 8t28.5 -8l68 -65v76q0 14 11.5 25.5t29.5 11.5h100q18 0 30.5 -11.5t12.5 -25.5v-76l66 65q12 8 28 8t27 -8l70 -69q14 -11 14.5 -29t-14.5 -26l-76 -76h86q20 0 32.5 -10.5
t12.5 -24.5v-100q0 -13 -13 -24t-32 -11h-86l76 -74q12 -11 12 -28.5t-12 -26.5l-70 -68q-10 -9 -26.5 -9t-28.5 9l-66 64v-78q0 -14 -12.5 -25.5t-30.5 -11.5h-100q-18 0 -29.5 11.5t-11.5 25.5v78l-68 -64q-12 -9 -28.5 -9t-28.5 9l-70 68q-12 9 -12 26.5t12 28.5l76 74
h-86q-19 0 -32 11t-13 24z" />
    <glyph glyph-name="plus" unicode="+" horiz-adv-x="956" 
d="M20 616v199q0 13 12.5 24t30.5 11h240v260q0 13 12.5 24t30.5 11h199q18 0 30.5 -11t12.5 -24v-260h252q19 0 32 -11t13 -24v-199q0 -13 -13 -23.5t-32 -10.5h-252v-263q0 -14 -12.5 -25t-30.5 -11h-199q-18 0 -30.5 11t-12.5 25v263h-240q-18 0 -30.5 10.5t-12.5 23.5z
" />
    <glyph glyph-name="comma" unicode="," horiz-adv-x="380" 
d="M0 141q0 63 48.5 109.5t115.5 46.5q92 0 136 -48.5t44 -125.5q0 -81 -47.5 -171t-110.5 -132q-23 -12 -44 -1t-21 34v135q-54 12 -87.5 54t-33.5 99z" />
    <glyph glyph-name="hyphen" unicode="-" horiz-adv-x="907" 
d="M47 616v207q0 14 13 25.5t32 11.5h684q20 0 31.5 -11t11.5 -26v-207q0 -13 -11.5 -23.5t-31.5 -10.5h-684q-19 0 -32 10.5t-13 23.5z" />
    <glyph glyph-name="period" unicode="." horiz-adv-x="368" 
d="M12 145q0 65 48.5 112.5t115.5 47.5q70 0 118 -47.5t48 -112.5q0 -66 -48 -111.5t-118 -45.5q-68 0 -116 45.5t-48 111.5z" />
    <glyph glyph-name="slash" unicode="/" horiz-adv-x="925" 
d="M-27 47q99 213 315.5 682t315.5 682q3 7 16.5 15t22.5 8h234q23 0 33.5 -15.5t2.5 -34.5q-99 -213 -318.5 -682t-318.5 -682q-3 -7 -15.5 -14.5t-22.5 -7.5h-228q-23 0 -34 15.5t-3 33.5z" />
    <glyph glyph-name="zero" unicode="0" horiz-adv-x="1157" 
d="M123 401v631q0 101 37.5 183t100 133t140.5 78.5t162 27.5t161.5 -27.5t140.5 -78.5t101 -133t38 -183v-631q0 -102 -38 -184t-101 -132.5t-140.5 -77.5t-161.5 -27q-85 0 -162.5 27t-140 77.5t-100 132.5t-37.5 184zM438 393q0 -62 37.5 -98.5t87.5 -36.5q51 0 88 36
t37 99v654q0 62 -37.5 97.5t-87.5 35.5q-51 0 -88 -35.5t-37 -97.5v-654z" />
    <glyph glyph-name="one" unicode="1" horiz-adv-x="679" 
d="M-43 1214q-12 37 23 46h-5q24 13 142 77.5t180 96.5h207q19 0 30 -11t11 -26v-1362q0 -13 -11 -24t-30 -11h-230q-20 0 -30.5 10.5t-10.5 24.5v1052q-31 -9 -100 -38h2l-49 -19q-17 -3 -32 3t-21 18z" />
    <glyph glyph-name="two" unicode="2" horiz-adv-x="1003" 
d="M39 35v215l496 686q43 57 43 113q0 45 -28.5 74.5t-70.5 29.5q-50 0 -88.5 -33t-38.5 -96q0 -12 -12 -23.5t-31 -11.5h-213q-19 0 -31 11.5t-12 23.5q0 91 26 167.5t77 135.5t133.5 92t189.5 33q110 0 206.5 -49t157 -139.5t60.5 -200.5q0 -137 -104 -283l-365 -481h443
q19 0 32 -11.5t13 -25.5v-227q0 -13 -13 -24t-32 -11h-795q-18 0 -30.5 11t-12.5 24z" />
    <glyph glyph-name="three" unicode="3" horiz-adv-x="1009" 
d="M25 412q0 14 13 25.5t32 11.5h223q18 0 30.5 -11.5t12.5 -25.5q0 -61 42 -98.5t99 -37.5q72 0 115 53t43 122q0 83 -45.5 136.5t-120.5 59.5h-184q-28 0 -41 17.5t2 37.5v-2l260 443h-391q-19 0 -32 11.5t-13 25.5v217q0 14 13 25.5t32 11.5h800q26 0 38 -18t-1 -38v2
l-280 -495q136 -47 207 -164t71 -287q0 -94 -26.5 -170.5t-71 -128.5t-105.5 -87.5t-128.5 -51.5t-141.5 -16q-122 0 -224 52t-165 152t-63 228z" />
    <glyph glyph-name="four" unicode="4" horiz-adv-x="1054" 
d="M31 449v225l565 737q7 7 20 15t19 8h227q19 0 32 -11.5t13 -25.5v-1362q0 -13 -13 -24t-32 -11h-227q-17 0 -29 11t-12 24v377h-520q-18 0 -30.5 11.5t-12.5 25.5zM362 682h234v293z" />
    <glyph glyph-name="five" unicode="5" horiz-adv-x="1026" 
d="M53 418q0 14 12.5 25.5t30.5 11.5h226q19 0 31 -11.5t12 -25.5q0 -66 36.5 -100.5t92.5 -34.5q67 0 107 50t40 118q0 85 -38 139.5t-111 58.5h-386q-19 0 -31 11t-12 24v713q0 14 12 25.5t31 11.5h732q19 0 31 -11.5t12 -25.5v-211q0 -13 -12 -24t-31 -11h-461v-229h117
q230 0 344 -129t114 -357q0 -137 -65 -241t-168 -156.5t-225 -52.5q-192 0 -316.5 113.5t-124.5 318.5z" />
    <glyph glyph-name="six" unicode="6" horiz-adv-x="966" 
d="M29 422q0 80 20 147l295 840q12 25 39 25h244q19 0 31 -15t6 -33l-191 -540h39q117 0 208 -62.5t137 -159.5t46 -208q0 -178 -130 -305t-312 -127q-192 0 -312 127.5t-120 310.5zM324 414q0 -62 41 -106t98 -44q59 0 101 44.5t42 105.5q0 63 -42 107t-101 44
q-57 0 -98 -44t-41 -107z" />
    <glyph glyph-name="seven" unicode="7" horiz-adv-x="892" 
d="M2 1180v217q0 14 13 25.5t32 11.5h813q23 0 35 -15.5t6 -34.5l-514 -1361v2q-7 -25 -39 -25h-242q-20 0 -32.5 16t-5.5 33l411 1094h-432q-19 0 -32 11.5t-13 25.5z" />
    <glyph glyph-name="eight" unicode="8" horiz-adv-x="997" 
d="M41 424q0 76 36.5 156.5t92.5 138.5q-57 57 -93 135.5t-36 155.5q0 106 37.5 192t100.5 139.5t140.5 82t161.5 28.5q85 0 163.5 -28.5t142 -82t101.5 -139.5t38 -192q0 -82 -37 -160.5t-101 -132.5q64 -59 101 -137t37 -156q0 -107 -38 -194t-102 -140t-142 -81.5
t-163 -28.5q-84 0 -161.5 28.5t-140.5 81.5t-100.5 140t-37.5 194zM344 1010q0 -62 40 -105t97 -43t98.5 43.5t41.5 104.5q0 73 -42 115t-98 42t-96.5 -42t-40.5 -115zM350 424q0 -72 39 -113t92 -41q54 0 93.5 41t39.5 113q0 61 -39 105t-94 44q-54 0 -92.5 -44.5
t-38.5 -104.5z" />
    <glyph glyph-name="nine" unicode="9" horiz-adv-x="995" 
d="M31 1018q0 178 129 305t311 127q192 0 313 -127.5t121 -310.5q0 -74 -24 -150l-293 -837q-3 -10 -15 -17.5t-24 -7.5h-242q-23 0 -34 14t-5 33l191 541h-39q-116 0 -206.5 62.5t-136.5 159.5t-46 208zM332 1020q0 -62 40 -105t97 -43q56 0 96.5 43.5t40.5 104.5
q0 60 -40.5 102.5t-96.5 42.5q-57 0 -97 -42.5t-40 -102.5z" />
    <glyph glyph-name="colon" unicode=":" horiz-adv-x="368" 
d="M12 145q0 65 48.5 112.5t115.5 47.5q70 0 118 -47.5t48 -112.5q0 -66 -48 -111.5t-118 -45.5q-68 0 -116 45.5t-48 111.5zM12 729q0 65 48.5 112.5t115.5 47.5q70 0 118 -47.5t48 -112.5q0 -66 -48 -112t-118 -46q-68 0 -116 46t-48 112z" />
    <glyph glyph-name="semicolon" unicode=";" horiz-adv-x="370" 
d="M0 141q0 63 48.5 109.5t115.5 46.5q92 0 136 -48.5t44 -125.5q0 -81 -47.5 -171t-110.5 -132q-23 -12 -44 -1t-21 34v135q-54 12 -87.5 54t-33.5 99zM12 729q0 65 48.5 112.5t115.5 47.5q70 0 118 -47.5t48 -112.5q0 -66 -48 -112t-118 -46q-68 0 -116 46t-48 112z" />
    <glyph glyph-name="less" unicode="&#x3c;" horiz-adv-x="714" 
d="M6.5 701.5q-0.5 16.5 11.5 25.5l424 451q37 23 70 0l123 -131q15 -11 15 -25.5t-15 -26.5l4 2l-281 -297l281 -290l-4 2q15 -12 15 -27t-15 -27l4 2l-131 -137q-29 -16 -62 0l-428 453q-11 9 -11.5 25.5z" />
    <glyph glyph-name="equal" unicode="=" horiz-adv-x="874" 
d="M39 328v198q0 13 13 24t32 11h680q20 0 31.5 -11t11.5 -24v-198q0 -11 -11.5 -22t-31.5 -11h-680q-19 0 -32 11.5t-13 21.5zM39 676v194q0 14 12.5 24.5t32.5 10.5h680q21 0 32 -10t11 -25v-194q0 -12 -11.5 -23.5t-31.5 -11.5h-680q-19 0 -32 11.5t-13 23.5z" />
    <glyph glyph-name="greater" unicode="&#x3e;" horiz-adv-x="708" 
d="M40 385q0 15 15 27l-4 -2l281 290l-281 297l4 -2q-15 12 -15 26.5t15 25.5l-4 -3l135 138q12 9 30.5 8t33.5 -12l424 -451q7 -12 7.5 -28t-7.5 -23l-428 -453q-32 -14 -64 0l-131 137l4 -2q-15 12 -15 27z" />
    <glyph glyph-name="question" unicode="?" horiz-adv-x="1003" 
d="M25 1040q0 180 127 297t313 117q200 0 327.5 -117t127.5 -329q0 -127 -92.5 -233.5t-225.5 -149.5v-213q0 -11 -12.5 -22t-30.5 -11h-207q-18 0 -30.5 11t-12.5 22v411q0 17 13 27t32 10q71 -4 122.5 8t78 36t38 50t11.5 54q0 147 -139 147q-54 0 -90.5 -31t-36.5 -84
q0 -13 -13 -23.5t-32 -10.5h-225q-18 0 -30.5 10.5t-12.5 23.5zM287 154q0 75 52.5 119t123.5 44t121.5 -43t50.5 -120q0 -74 -52 -118t-124 -44q-70 0 -121 42.5t-51 119.5z" />
    <glyph glyph-name="at" unicode="@" horiz-adv-x="1677" 
d="M55 717q0 147 53.5 281t149 235t237 161t306.5 60q150 0 285 -51t237.5 -143.5t162.5 -233t60 -309.5v-334q0 -14 -13 -25.5t-32 -11.5h-700q-161 0 -269 107t-108 264q0 155 108.5 264t268.5 109q157 0 266 -109t109 -264q0 -67 -19 -123h84v123q0 136 -62.5 241
t-162 158t-215.5 53q-136 0 -241 -62t-158.5 -164t-53.5 -226q0 -123 55 -225.5t159.5 -164t238.5 -61.5h682q18 0 30.5 -10.5t12.5 -24.5v-211q0 -14 -12.5 -25t-30.5 -11h-682q-166 0 -307 59t-236.5 159t-149 233.5t-53.5 281.5zM694 717q0 -48 31.5 -82.5t75.5 -34.5
t76 35t32 82t-32 82t-76 35t-75.5 -34.5t-31.5 -82.5z" />
    <glyph glyph-name="A" unicode="A" horiz-adv-x="1167" 
d="M-4 49q88 226 271.5 697t271.5 696q11 23 40 23t39 -23l543 -1393q3 -8 3 -15q0 -10 -6 -19q-11 -15 -34 -15h-247q-12 0 -24 7.5t-15 17.5v-2l-56 141h-409l-51 -141v2q-3 -10 -15.5 -17.5t-27.5 -7.5h-244q-25 0 -36 14q-6 8 -6 19q0 8 3 16zM455 412h245l-71 213
q-37 126 -49 198q-17 -90 -52 -198z" />
    <glyph glyph-name="B" unicode="B" horiz-adv-x="1234" 
d="M127 35v1362q0 14 12 25.5t31 11.5h455h17t45 -3.5t66.5 -9.5t77.5 -20.5t83 -34t77 -52t66.5 -73t45 -98.5t17.5 -127q0 -210 -168 -297q56 -26 96 -65.5t57 -77.5t26.5 -72.5t9.5 -55.5v-22q0 -84 -24 -152t-60.5 -111t-88.5 -75.5t-98.5 -48.5t-100.5 -25.5
t-84.5 -11.5t-59.5 -2h-455q-19 0 -31 11t-12 24zM438 295h187q34 0 65 5.5t63.5 19t52 42.5t19.5 70q0 40 -20.5 68.5t-50 40.5t-59 18t-49.5 6h-21h-187v-270zM438 866h187q4 0 10.5 0.5t25 3t35.5 7t38 14.5t36 23.5t25 35.5t10 49q0 41 -18.5 71.5t-45 44t-53 21
t-44.5 8.5l-19 1h-187v-279z" />
    <glyph glyph-name="C" unicode="C" horiz-adv-x="1421" 
d="M82 717q0 213 93 381.5t258.5 262t375.5 93.5q144 0 278 -57t234 -154q6 -10 5.5 -28t-9.5 -27l-160 -158q-12 -9 -28.5 -9t-26.5 9q-125 125 -293 125q-188 0 -299 -122.5t-111 -315.5q0 -197 118 -317.5t292 -120.5q169 0 293 124q10 9 29 7.5t34 -13.5l156 -155
q6 -15 6 -33q0 -14 -6 -21q-100 -95 -234 -151.5t-278 -56.5q-201 0 -365.5 89t-263 258.5t-98.5 389.5z" />
    <glyph glyph-name="D" unicode="D" horiz-adv-x="1355" 
d="M127 35v1362q0 14 12.5 25.5t30.5 11.5h227q64 0 121.5 -3.5t125.5 -13.5t127 -27t121 -45.5t111.5 -66t94.5 -92.5t75.5 -121.5t48 -155t17.5 -192.5q0 -127 -28.5 -232t-75.5 -178t-115.5 -129t-141 -89t-159.5 -53.5t-163 -28t-159 -7.5h-227q-18 0 -30.5 11t-12.5 24
zM442 301q21 -1 41 -1q21 0 39 1q38 2 88 11t91.5 25.5t83.5 48t71 75t47.5 109t18.5 147.5q0 111 -36.5 193t-102 130.5t-151.5 71.5q-79 21 -173 21h-17v-832z" />
    <glyph glyph-name="E" unicode="E" horiz-adv-x="1204" 
d="M127 35v1362q0 14 12 25.5t31 11.5h891q18 0 30.5 -11.5t12.5 -25.5v-219q0 -14 -12.5 -25.5t-30.5 -11.5h-621v-275h525q18 0 29.5 -11.5t11.5 -25.5v-221q0 -13 -11.5 -24t-29.5 -11h-525v-274h637q19 0 32 -11.5t13 -25.5v-227q0 -13 -13 -24t-32 -11h-907
q-19 0 -31 11t-12 24z" />
    <glyph glyph-name="F" unicode="F" horiz-adv-x="1187" 
d="M127 35v1362q0 14 12 25.5t31 11.5h907q19 0 32 -11.5t13 -25.5v-226q0 -14 -13 -25t-32 -11h-637v-275h525q18 0 29.5 -11.5t11.5 -25.5v-219q0 -14 -11.5 -25.5t-29.5 -11.5h-525v-532q0 -13 -12 -24t-31 -11h-227q-19 0 -31 11t-12 24z" />
    <glyph glyph-name="G" unicode="G" horiz-adv-x="1583" 
d="M88 717q0 156 57.5 294t155 234.5t231 152.5t281.5 56q144 0 279 -57.5t233 -153.5q8 -10 7 -28t-11 -27l-160 -158q-12 -10 -29 -9.5t-26 11.5q-123 123 -293 123q-175 0 -292.5 -118.5t-117.5 -319.5q0 -112 32 -197.5t89 -137t129.5 -77.5t159.5 -26q170 0 297 133
v153h-201q-20 0 -32.5 10t-12.5 25v211q0 13 13 24t32 11h473q18 0 29.5 -11t11.5 -24v-780q0 -14 -11.5 -25.5t-29.5 -11.5h-198q-18 0 -31.5 10t-13.5 25q-1 15 -2.5 32t-1.5 41q-133 -122 -353 -122q-146 0 -272.5 50t-220.5 142.5t-147.5 233t-53.5 311.5z" />
    <glyph glyph-name="H" unicode="H" horiz-adv-x="1404" 
d="M131 35v1362q0 14 12.5 25.5t30.5 11.5h227q19 0 32 -11.5t13 -25.5v-529h480v529q0 14 12.5 25.5t30.5 11.5h227q19 0 32 -11.5t13 -25.5v-1362q0 -13 -13 -24t-32 -11h-227q-18 0 -30.5 11t-12.5 24v532h-480v-532q0 -13 -13 -24t-32 -11h-227q-18 0 -30.5 11t-12.5 24
z" />
    <glyph glyph-name="I" unicode="I" horiz-adv-x="716" 
d="M29 35v209q0 13 12.5 24t30.5 11h118v876h-110q-18 0 -30.5 11t-12.5 24v207q0 14 12.5 25.5t30.5 11.5h532q19 0 31 -11.5t12 -25.5v-207q0 -13 -12 -24t-31 -11h-108v-876h117q18 0 30.5 -11t12.5 -24v-209q0 -13 -12.5 -24t-30.5 -11h-549q-18 0 -30.5 11t-12.5 24z
" />
    <glyph glyph-name="J" unicode="J" horiz-adv-x="831" 
d="M31 35v227q0 14 12.5 25.5t30.5 11.5h172q36 0 62.5 13.5t39 33.5t19 39.5t7.5 32.5l1 14v725h-203q-19 0 -31 11t-12 24v207q0 14 12 25.5t31 11.5h475q19 0 30 -11t11 -26v-967q0 -69 -15 -128.5t-40.5 -100.5t-59 -74.5t-70 -54.5t-73 -36t-70 -22t-59 -11t-40.5 -5
h-15h-172q-18 0 -30.5 11t-12.5 24z" />
    <glyph glyph-name="K" unicode="K" horiz-adv-x="1323" 
d="M127 35v1362q0 14 13 25.5t32 11.5h227q18 0 30.5 -11.5t12.5 -25.5v-570q92 115 263.5 324.5t218.5 267.5q3 3 15.5 9t18.5 6h285q27 0 39 -19q4 -7 5 -15q0 -12 -11 -24l-545 -671l549 -648q11 -12 11 -24q-1 -7 -5 -15q-12 -18 -39 -18h-299q-6 0 -19 5.5t-16 8.5
l-387 480l-18 -23v2q-8 -9 -30 -34.5t-36 -39.5v-364q0 -13 -12.5 -24t-30.5 -11h-227q-19 0 -32 11t-13 24z" />
    <glyph glyph-name="L" unicode="L" horiz-adv-x="1026" 
d="M123 35v1362q0 14 12.5 25.5t30.5 11.5h229q18 0 30.5 -11.5t12.5 -25.5v-1098h461q19 0 32 -11.5t13 -25.5v-227q0 -13 -13 -24t-32 -11h-733q-18 0 -30.5 11t-12.5 24z" />
    <glyph glyph-name="M" unicode="M" horiz-adv-x="1875" 
d="M133 35v1364q0 15 10.5 26t30.5 11h234q10 0 22.5 -8t15.5 -15l480 -975l454 975q3 7 17.5 15t23.5 8h230q19 0 32 -11.5t13 -25.5v-1364q0 -13 -13 -24t-32 -11h-226q-19 0 -32 11t-13 24v663q-51 -104 -154.5 -310.5t-154.5 -309.5q-1 -6 -15 -14.5t-22 -8.5h-215
q-9 0 -22.5 8t-16.5 15v-2l-334 645v-686q0 -13 -12.5 -24t-30.5 -11h-229q-20 0 -30.5 10.5t-10.5 24.5z" />
    <glyph glyph-name="N" unicode="N" horiz-adv-x="1519" 
d="M129 35v1362q0 14 12.5 25.5t30.5 11.5h231q23 0 35 -15q107 -154 304.5 -434t295.5 -420v832q0 14 12 25.5t31 11.5h226q19 0 31 -11.5t12 -25.5v-1362q0 -13 -12 -24t-31 -11h-230q-24 0 -35 14q-59 84 -267.5 383t-330.5 473v-835q0 -13 -12.5 -24t-30.5 -11h-229
q-18 0 -30.5 11t-12.5 24z" />
    <glyph glyph-name="O" unicode="O" horiz-adv-x="1306" 
d="M82 911q0 109 44 208.5t117.5 172t175.5 115.5t214 43q148 0 274.5 -72.5t200.5 -197t74 -269.5q0 -146 -74 -269t-200.5 -194t-274.5 -71q-149 0 -276 71t-201 194t-74 269zM135 35v225q0 14 12 25.5t31 11.5h897q19 0 32 -11.5t13 -25.5v-225q0 -13 -13 -24t-32 -11
h-897q-19 0 -31 11t-12 24zM395 911q0 -102 69.5 -169.5t168.5 -67.5t167 67.5t68 169.5q0 101 -68.5 171.5t-166.5 70.5q-99 0 -168.5 -70.5t-69.5 -171.5z" />
    <glyph glyph-name="P" unicode="P" horiz-adv-x="1193" 
d="M127 35v794q0 14 12 25.5t31 11.5h145q-19 28 -53 83.5t-53 82.5q-12 21 -40.5 66t-41.5 67v232q0 14 12 25.5t31 11.5h455q10 0 28 -1t69.5 -9.5t98 -23.5t104 -47.5t98.5 -76.5t69 -115.5t28 -159.5q0 -70 -17 -129t-45.5 -100.5t-65.5 -75.5t-78.5 -54.5t-82.5 -36
t-78 -22.5t-65.5 -11t-45.5 -4l-17 -1h-185v-532q0 -13 -12.5 -24t-30.5 -11h-227q-19 0 -31 11t-12 24zM487 1135l168 -267q57 8 104.5 41t47.5 92q0 38 -16 65t-36.5 40t-50.5 20t-45 8t-34 1h-138z" />
    <glyph glyph-name="Q" unicode="Q" horiz-adv-x="1683" 
d="M88 721q0 117 34 227.5t98.5 201.5t152 159.5t201 106.5t239.5 38q157 0 293.5 -59t231 -159t148.5 -234t54 -281q0 -106 -29.5 -213t-83.5 -191l125 -133q10 -9 10 -25q0 -20 -14 -26l-164 -158q-10 -7 -24 -7h-7q-19 2 -34 14l-111 116q-179 -116 -395 -116
q-149 0 -283 56.5t-231 154t-154 235.5t-57 293zM401 721q0 -192 120 -316t292 -124q88 0 184 47l-276 303l-272 299q-48 -94 -48 -209zM678 1130q512 -559 522 -571q27 76 27 162q0 176 -122.5 305t-291.5 129q-62 0 -135 -25z" />
    <glyph glyph-name="R" unicode="R" horiz-adv-x="1253" 
d="M129 35v794q0 14 12.5 25.5t30.5 11.5h147q-16 26 -46.5 71.5t-39.5 59.5l-104 168v232q0 14 12.5 25.5t30.5 11.5h455q10 0 28 -1t69.5 -9.5t98.5 -23.5t104.5 -47.5t98.5 -76.5t69.5 -115.5t28.5 -159.5q0 -70 -16.5 -129.5t-43.5 -101t-65 -75t-75.5 -54t-81.5 -35.5
l344 -553v2q7 -11 7 -21q-1 -8 -5 -16q-10 -18 -35 -18h-268q-10 0 -23 6.5t-16 13.5l2 -2l-344 549h-62v-532q0 -13 -12 -24t-31 -11h-227q-18 0 -30.5 11t-12.5 24zM498 1135l168 -267q60 4 101.5 34.5t41.5 98.5q0 134 -182 134h-129z" />
    <glyph glyph-name="S" unicode="S" horiz-adv-x="1112" 
d="M76 412q0 14 12.5 25.5t30.5 11.5h227q17 0 30 -11.5t13 -25.5q3 -63 47.5 -98t108.5 -35q65 0 110 38.5t45 100.5q0 65 -47.5 106.5t-107.5 46.5q-112 0 -223 50q-119 56 -182.5 153t-63.5 227q0 102 39.5 188.5t105 143.5t150 89t174.5 32q196 0 329 -120t136 -308
q0 -12 -13 -23.5t-32 -11.5h-224q-16 0 -30.5 12t-14.5 23q-3 62 -45.5 95.5t-105.5 33.5q-67 0 -111.5 -40.5t-44.5 -113.5q0 -64 46 -100.5t110 -36.5q117 0 221 -49q120 -55 184 -159t64 -238q0 -102 -39 -186.5t-105 -138.5t-149.5 -83.5t-175.5 -29.5
q-203 5 -334.5 119t-134.5 313z" />
    <glyph glyph-name="T" unicode="T" horiz-adv-x="917" 
d="M6 1190v207q0 14 12.5 25.5t30.5 11.5h799q19 0 32 -11.5t13 -25.5v-207q0 -13 -13 -24t-32 -11h-242v-1120q0 -13 -13 -24t-32 -11h-225q-18 0 -30.5 11t-12.5 24v1120h-244q-18 0 -30.5 11t-12.5 24z" />
    <glyph glyph-name="U" unicode="U" horiz-adv-x="1515" 
d="M129 584v813q0 14 12.5 25.5t30.5 11.5h1133q19 0 31 -11.5t12 -25.5v-813q0 -21 -2.5 -53t-20.5 -106t-49 -136q-75 -149 -213.5 -229t-323.5 -80q-179 0 -319.5 83t-218.5 228q-30 61 -48 134.5t-21 106t-3 52.5zM442 584q0 -80 43 -164q79 -141 254 -141
q177 0 252 141q19 36 30.5 78.5t13 60.5t1.5 27v569h-594v-571z" />
    <glyph glyph-name="V" unicode="V" horiz-adv-x="1177" 
d="M-4 1384q-3 6 -3 13q1 11 9 21q14 16 35 16h1087q22 0 34 -16q8 -10 8 -21q0 -6 -3 -13l-542 -1419q-9 -23 -39 -23t-39 23zM397 1163l185 -524l184 524h-369z" />
    <glyph glyph-name="W" unicode="W" horiz-adv-x="2076" 
d="M16 1384q-2 6 -2 12q0 12 8 22q13 16 33 16h246q14 0 26 -7.5t13 -17.5q48 -131 132.5 -369t125.5 -352l274 723v-2q3 11 14.5 18t24.5 7h228q14 0 26 -7.5t15 -17.5v2l272 -727l258 725q3 10 15 17.5t26 7.5h244q25 0 37 -16q7 -9 7 -19q0 -7 -3 -15l-547 -1417
q-9 -23 -38 -23t-38 23l-389 1014q-56 -150 -120.5 -319t-144 -375.5t-122.5 -319.5q-9 -23 -41 -23t-39 25l2 -2z" />
    <glyph glyph-name="X" unicode="X" horiz-adv-x="1380" 
d="M12 19q-4 7 -5 15q0 12 11 23h-2l467 660q-44 60 -125 174t-104 147l-238 338h2q-10 12 -10 23q0 7 4 15q11 20 37 20h279q25 0 37 -15l311 -436l311 436q5 5 18.5 10t18.5 5h279q29 0 39 -20q4 -7 4 -14q0 -12 -11 -24h2l-471 -659q43 -60 269 -375q34 -46 101 -142.5
t101 -142.5h-2q11 -12 11 -23q0 -7 -4 -15q-10 -19 -39 -19h-279q-26 0 -37 14l-311 437l-311 -437q-14 -14 -37 -14h-279q-27 0 -37 19z" />
    <glyph glyph-name="Y" unicode="Y" horiz-adv-x="1320" 
d="M-22 1414q10 20 38 20h277q25 0 37 -15q61 -88 171.5 -239t141.5 -195l311 434q15 15 35 15h279q28 0 38 -20q5 -7 5 -14q0 -12 -11 -24h3l-504 -706v-635q0 -13 -12 -24t-31 -11h-228q-18 0 -30.5 11t-12.5 24v635q-45 65 -138 194t-138 193q-37 51 -113.5 159.5
t-113.5 159.5h2q-11 12 -11 24q0 7 5 14z" />
    <glyph glyph-name="Z" unicode="Z" horiz-adv-x="972" 
d="M31 1171v226q0 14 12.5 25.5t30.5 11.5h792q26 0 37.5 -15.5t3.5 -34.5q-71 -180 -218 -542.5t-218 -542.5h397q19 0 32 -11.5t13 -25.5v-227q0 -13 -13 -24t-32 -11h-792q-25 0 -36 14.5t-3 34.5l434 1086h-397q-18 0 -30.5 11t-12.5 25z" />
    <glyph glyph-name="bracketleft" unicode="[" horiz-adv-x="704" 
d="M119 35v1362q0 14 12 25.5t29 11.5h454q19 0 32 -11.5t13 -25.5v-226q0 -14 -12.5 -25t-32.5 -11h-180v-836h180q19 0 32 -11.5t13 -25.5v-227q0 -13 -13 -24t-32 -11h-454q-17 0 -29 11t-12 24z" />
    <glyph glyph-name="backslash" unicode="\" horiz-adv-x="929" 
d="M-27 1384q-8 18 3 34t34 16h234q10 0 23 -8t16 -15l630 -1364q8 -19 -2.5 -34t-33.5 -15h-234q-9 0 -22.5 7.5t-16.5 14.5z" />
    <glyph glyph-name="bracketright" unicode="]" horiz-adv-x="720" 
d="M43 35v227q0 14 12 25.5t31 11.5h182v836h-182q-19 0 -31 11t-12 25v226q0 14 12 25.5t31 11.5h455q19 0 30 -11t11 -26v-1362q0 -13 -11 -24t-30 -11h-455q-19 0 -31 11t-12 24z" />
    <glyph glyph-name="asciicircum" unicode="^" horiz-adv-x="915" 
d="M-30 1001.5q0 18.5 14 28.5l-2 -2l417 395q12 9 30.5 8.5t29.5 -8.5l420 -395l-2 2q13 -11 12.5 -28.5t-12.5 -28.5l-127 -119q-12 -9 -29 -9t-29 9l-262 256l-123 -121l-143 -135q-12 -9 -27.5 -9t-27.5 9l-125 119q-14 10 -14 28.5z" />
    <glyph glyph-name="underscore" unicode="_" horiz-adv-x="1103" 
d="M47 35q0 13 13 24t32 11h899q19 0 31 -11t12 -24v-189q0 -14 -11.5 -24t-31.5 -10h-899q-20 0 -32.5 10t-12.5 24v189z" />
    <glyph glyph-name="grave" unicode="`" horiz-adv-x="542" 
d="M0 1284q-5 16 6 31v-2l111 176q9 15 61 -4l340 -195h-4q19 -8 24.5 -22.5t-6.5 -28.5v2l-98 -166q-15 -18 -65 0l-346 189q-18 4 -23 20z" />
    <glyph glyph-name="a" unicode="a" horiz-adv-x="1169" 
d="M-4 49q87 225 268 694t268 693q10 23 39.5 23t40.5 -23l537 -1387q3 -8 3 -15q0 -10 -6 -19q-11 -15 -34 -15h-244q-12 0 -24 7.5t-15 17.5v-2l-55 141h-405l-52 -141v2q-3 -10 -15 -17.5t-26 -7.5h-241q-25 0 -36 14q-6 8 -6 19q0 8 3 16zM451 410h241l-69 213
q-40 136 -50 196q-17 -92 -51 -196z" />
    <glyph glyph-name="b" unicode="b" horiz-adv-x="1234" 
d="M131 35v1347q0 14 11.5 24.5t29.5 10.5h444q10 0 28 -0.5t68.5 -7.5t97 -20t103 -43t97 -72t68.5 -111t28 -155q0 -195 -166 -285q54 -26 92.5 -66.5t55 -80t25.5 -75.5t9 -59v-22q0 -82 -23.5 -149t-59 -110t-86.5 -74.5t-96.5 -47.5t-98 -25.5t-83 -11.5t-59.5 -2h-444
q-18 0 -29.5 11t-11.5 24zM438 291h178q34 0 65 5.5t63 19.5t51.5 42.5t19.5 69.5q0 40 -18 69.5t-40 43t-55 21t-49.5 8.5t-36.5 1h-178v-280zM438 850h178q15 0 33 2t45.5 11t49 23.5t37.5 42.5t16 66q0 39 -18.5 67.5t-45.5 40t-53.5 17.5t-45.5 6h-18h-178v-276z" />
    <glyph glyph-name="c" unicode="c" horiz-adv-x="1421" 
d="M86 702q0 210 90.5 378t253.5 263t369 95q143 0 274.5 -55t229.5 -150q5 -9 5 -22q0 -21 -10 -31l-155 -156q-12 -9 -28.5 -9t-27.5 9q-126 123 -288 123q-183 0 -291.5 -127t-108.5 -318q0 -194 115 -311t285 -117q164 0 288 121q11 9 27.5 9t28.5 -9l155 -157
q10 -9 10 -27.5t-10 -28.5q-98 -95 -226.5 -148.5t-272.5 -53.5q-146 0 -276 51.5t-227 144t-153.5 229t-56.5 297.5z" />
    <glyph glyph-name="d" unicode="d" horiz-adv-x="1355" 
d="M131 35v1347q0 14 12.5 24.5t30.5 10.5h223q82 0 154 -6t158.5 -24.5t156 -49.5t138 -85t114.5 -126t74.5 -177.5t28.5 -235.5q0 -125 -27.5 -228.5t-74 -175.5t-113 -128t-138 -89.5t-155.5 -55t-159.5 -29t-156.5 -7.5h-223q-18 0 -30.5 11t-12.5 24zM440 285h20
q30 0 58 2q38 3 86.5 14t90 29.5t82.5 51.5t69.5 77t46.5 109t18 145q0 95 -21 168t-58.5 121t-93 78.5t-119.5 43.5t-142 13h-37v-852z" />
    <glyph glyph-name="e" unicode="e" horiz-adv-x="1204" 
d="M131 35v1347q0 14 11.5 24.5t29.5 10.5h891q20 0 32.5 -10.5t12.5 -24.5v-219q0 -13 -13 -24t-32 -11h-625v-280h514q19 0 30 -10.5t11 -24.5v-215q0 -13 -11 -24t-30 -11h-514v-276h625q20 0 32.5 -10.5t12.5 -24.5v-217q0 -13 -13 -24t-32 -11h-891q-18 0 -29.5 11
t-11.5 24z" />
    <glyph glyph-name="f" unicode="f" horiz-adv-x="1187" 
d="M131 35v1335q0 14 11.5 25.5t29.5 11.5h891q19 0 32 -11.5t13 -25.5v-221q0 -14 -13 -25.5t-32 -11.5h-625v-264h514q19 0 30 -10.5t11 -24.5v-221q0 -13 -11 -24t-30 -11h-514v-522q0 -13 -11.5 -24t-31.5 -11h-223q-18 0 -29.5 11t-11.5 24z" />
    <glyph glyph-name="g" unicode="g" horiz-adv-x="1583" 
d="M94 709q0 155 56 291.5t152 232t228 150.5t279 55q143 0 275 -55.5t231 -151.5q8 -10 7 -27t-11 -26l-158 -158q-12 -9 -27.5 -9t-27.5 9q-122 125 -289 125q-173 0 -288 -118t-115 -318q0 -111 31.5 -196t87 -136.5t127 -77t157.5 -25.5q173 0 299 132v161h-320
q-18 0 -30.5 11t-12.5 24v199q0 14 12.5 25.5t30.5 11.5h582q18 0 30.5 -11.5t12.5 -25.5v-770q0 -13 -12.5 -24t-30.5 -11h-196q-19 0 -31.5 9.5t-12.5 23.5q-1 16 -2 26.5t-1.5 19t-0.5 25.5q-75 -65 -156.5 -94t-189.5 -29q-145 0 -270 49.5t-217.5 141.5t-145.5 231.5
t-53 309.5z" />
    <glyph glyph-name="h" unicode="h" horiz-adv-x="1404" 
d="M135 35v1347q0 14 12.5 24.5t30.5 10.5h223q18 0 30.5 -10.5t12.5 -24.5v-518h469v518q0 14 12.5 24.5t30.5 10.5h226q17 0 29 -10.5t12 -24.5v-1347q0 -13 -12 -24t-29 -11h-226q-18 0 -30.5 11t-12.5 24v540h-469v-540q0 -13 -12.5 -24t-30.5 -11h-223q-18 0 -30.5 11
t-12.5 24z" />
    <glyph glyph-name="i" unicode="i" horiz-adv-x="573" 
d="M123 35v1347q0 14 12.5 24.5t30.5 10.5h223q19 0 31 -10.5t12 -24.5v-1347q0 -13 -12 -24t-31 -11h-223q-18 0 -30.5 11t-12.5 24z" />
    <glyph glyph-name="j" unicode="j" horiz-adv-x="831" 
d="M35 35v223q0 14 12.5 24.5t30.5 10.5h168q35 0 61 13.5t37.5 32.5t18.5 38.5t7 32.5l1 14v958q0 14 11 24.5t30 10.5h225q18 0 29.5 -10.5t11.5 -24.5v-958q0 -87 -24 -157t-62 -113t-84 -74.5t-92 -46t-84 -23t-62 -9.5l-24 -1h-168q-18 0 -30.5 11t-12.5 24z" />
    <glyph glyph-name="k" unicode="k" horiz-adv-x="1323" 
d="M131 35v1347q0 14 12.5 24.5t32.5 10.5h223q19 0 31 -10.5t12 -24.5v-575l476 598q24 12 32 12h281q29 1 40 -17q4 -7 4 -14q0 -12 -11 -26l-537 -664l541 -639q11 -14 11 -26q0 -7 -4 -13q-11 -18 -40 -18h-293q-6 0 -19 5.5t-16 8.5l-385 473q-4 -4 -9.5 -11.5
t-10.5 -12.5v2q-29 -39 -60 -70v-360q0 -13 -12 -24t-31 -11h-223q-19 0 -32 11t-13 24z" />
    <glyph glyph-name="l" unicode="l" horiz-adv-x="1026" 
d="M127 35v1347q0 14 12 24.5t31 10.5h223q18 0 30.5 -10.5t12.5 -24.5v-1089h451q18 0 30.5 -10.5t12.5 -24.5v-223q0 -13 -12.5 -24t-30.5 -11h-717q-19 0 -31 11t-12 24z" />
    <glyph glyph-name="m" unicode="m" horiz-adv-x="1875" 
d="M137 35v1347q0 14 12.5 24.5t30.5 10.5h228q10 0 22.5 -7t15.5 -13l469 -969l447 969q3 7 17 13.5t24 6.5h225q19 0 31 -10.5t12 -24.5v-1347q0 -13 -12 -24t-31 -11h-221q-19 0 -32 11t-13 24v672l-301 -631q-3 -7 -16 -15t-23 -8h-211q-10 0 -22 7.5t-15 15.5l-328 655
v-696q0 -13 -12 -24t-31 -11h-223q-18 0 -30.5 11t-12.5 24z" />
    <glyph glyph-name="n" unicode="n" horiz-adv-x="1519" 
d="M135 35v1349q0 15 10.5 25t30.5 10h225q26 0 35 -12l588 -864v841q0 14 12.5 24.5t30.5 10.5h221q19 0 31 -10.5t12 -24.5v-1349q0 -13 -12 -24t-31 -11h-223q-26 0 -37 14l-586 854v-833q0 -13 -12.5 -24t-30.5 -11h-223q-20 0 -30.5 10.5t-10.5 24.5z" />
    <glyph glyph-name="o" unicode="o" horiz-adv-x="1632" 
d="M82 711q0 110 27.5 214.5t85.5 197.5t140 163t198.5 111t254.5 41q136 0 252 -41t198.5 -111t140.5 -163t86 -197.5t28 -214.5t-28 -215t-86 -198t-140.5 -163.5t-198.5 -111.5t-252 -41q-138 0 -254.5 41t-198.5 111.5t-140 164t-85.5 198t-27.5 214.5zM397 707
q0 -84 25 -161t72.5 -139.5t123.5 -99.5t170 -37q75 0 139.5 24.5t110 66.5t78.5 97.5t48.5 119t15.5 129.5q0 67 -15.5 131t-48.5 120.5t-78.5 99t-110 67t-139.5 24.5q-94 0 -170 -37.5t-123.5 -100.5t-72.5 -141t-25 -163z" />
    <glyph glyph-name="p" unicode="p" horiz-adv-x="1187" 
d="M131 31v1351q0 14 11.5 24.5t29.5 10.5h446q22 0 46 -1.5t75.5 -10.5t96 -24.5t97 -48t89 -76.5t61.5 -115t25 -158t-26 -157.5t-64.5 -114t-92.5 -76t-99 -47.5t-96.5 -24t-73 -10t-38.5 -1h-180v-522q0 -13 -11.5 -24t-31.5 -11h-223q-18 0 -29.5 11t-11.5 24zM438 846
h180q12 0 24.5 1t36 4.5t43 13t38.5 23.5t30 38.5t11 56.5q0 37 -17 65t-39 42t-51 22.5t-45.5 10t-30.5 1.5h-180v-278z" />
    <glyph glyph-name="q" unicode="q" horiz-adv-x="1693" 
d="M88 711q0 145 50 277t140.5 232t225.5 159t295 59q154 0 288.5 -59.5t226.5 -159t144.5 -232t52.5 -276.5q0 -102 -30.5 -212t-83.5 -198l116 -119q12 -9 12 -27t-12 -28l-155 -154q-10 -9 -26 -9t-27 9l-119 117q-181 -110 -387 -110q-156 0 -290.5 60t-225.5 160.5
t-143 233t-52 277.5zM397 711q0 -85 29 -164.5t80 -140.5t127.5 -97.5t165.5 -36.5q83 0 164 37l-43 45q-8 8 -20.5 21.5t-23 23.5t-20.5 19l2 -2q-13 11 -12.5 27.5t12.5 27.5l158 158q28 17 55 0l100 -101q33 91 33 183q0 117 -45.5 214.5t-139.5 159.5t-220 62
q-123 0 -216 -61.5t-139.5 -160t-46.5 -214.5z" />
    <glyph glyph-name="r" unicode="r" horiz-adv-x="1226" 
d="M129 35v1347q0 14 11.5 24.5t29.5 10.5h444q29 0 54.5 -1t79 -10t96.5 -24t94 -47t86 -75.5t58.5 -113.5t23.5 -157q0 -282 -250 -381l60 -130t73 -156l125 -273q3 -8 3 -16q1 -10 -5 -18q-10 -15 -35 -15h-246q-9 0 -22 8t-16 15l-250 544h-105v-532q0 -13 -13 -24
t-32 -11h-223q-18 0 -29.5 11t-11.5 24zM438 840h176q20 0 39 2t47 10.5t48 22.5t34.5 42t14.5 66q0 46 -22.5 77.5t-56.5 44.5t-59 18t-45 5h-176v-288z" />
    <glyph glyph-name="s" unicode="s" horiz-adv-x="1112" 
d="M80 406q0 32 43 32h223q16 0 29.5 -9t13.5 -23q3 -63 46 -97.5t106 -34.5q62 0 106.5 37.5t44.5 98.5q0 62 -47.5 104t-103.5 47q-115 0 -219 47q-116 56 -179 156t-63 229q0 132 65.5 235t170 155.5t225.5 52.5q191 0 321 -117t133 -301q0 -14 -12.5 -24.5t-30.5 -10.5
h-221q-17 0 -30 10.5t-13 24.5q-3 60 -45 93.5t-102 33.5q-66 0 -109 -39.5t-43 -112.5q0 -65 45 -106t107 -41q113 0 215 -47q117 -53 180 -156t63 -233q0 -101 -38 -184t-102.5 -136t-146 -81.5t-171.5 -28.5q-200 5 -329 117t-132 309z" />
    <glyph glyph-name="t" unicode="t" horiz-adv-x="917" 
d="M10 1165v205q0 14 12.5 25.5t30.5 11.5h783q19 0 31 -11.5t12 -25.5v-205q0 -14 -11.5 -23t-31.5 -9h-238v-1098q0 -13 -11 -24t-30 -11h-223q-20 0 -30.5 10.5t-10.5 24.5v1098h-240q-19 0 -31 9t-12 23z" />
    <glyph glyph-name="u" unicode="u" horiz-adv-x="1398" 
d="M131 463v907q0 14 12.5 25.5t30.5 11.5h223q18 0 30.5 -11.5t12.5 -25.5v-903q13 -88 80 -140.5t156 -52.5q95 0 164 49.5t69 139.5v907q0 14 12.5 25.5t30.5 11.5h226q17 0 29 -11.5t12 -25.5v-907q0 -149 -72 -259.5t-194 -167t-277 -56.5q-151 0 -274.5 58t-197 169
t-73.5 256z" />
    <glyph glyph-name="v" unicode="v" horiz-adv-x="1169" 
d="M4 1368q-3 8 -3 15q0 10 6 19q11 15 34 15h240q14 0 25.5 -6.5t12.5 -15.5q29 -81 116.5 -321.5t137.5 -385.5q28 78 118 325t138 382q1 9 13 15.5t26 6.5h240q24 -1 36 -15q7 -9 6 -19q0 -7 -3 -15l-535 -1382q-10 -20 -38 -20t-39 20z" />
    <glyph glyph-name="w" unicode="w" horiz-adv-x="2058" 
d="M18 1368q-3 7 -3 13q0 11 8 21q12 15 34 15h240q14 0 26 -6.5t13 -15.5q45 -126 127 -353.5t127 -353.5l256 707q7 22 37 22h247q13 0 24.5 -6.5t14.5 -15.5q44 -126 127 -353.5t127 -353.5l256 707q3 9 15 15.5t24 6.5h242q25 0 35 -14q6 -8 6 -18q0 -8 -4 -17
l-535 -1399q-9 -25 -37.5 -25t-38.5 25l-380 1008q-59 -160 -186 -496.5t-191 -511.5q-11 -25 -40 -25t-40 25z" />
    <glyph glyph-name="x" unicode="x" horiz-adv-x="1380" 
d="M18 18q-4 7 -4 16q0 11 9 23h-3l461 645q-79 110 -461 658h3q-9 12 -9 23q0 7 4 15q10 18 39 19h271q25 0 37 -12q60 -88 174 -251t133 -191l303 442q4 4 17 8t18 4h274q24 -1 36 -19q5 -9 6 -17q0 -10 -7 -21l-463 -658q37 -48 102 -140.5t95 -133.5q126 -177 266 -371
q7 -11 7 -21t-6 -18q-12 -18 -36 -18h-274q-27 0 -35 14q-52 75 -151.5 220.5t-151.5 220.5q-50 -70 -153.5 -220.5t-153.5 -220.5q-14 -14 -37 -14h-271q-29 0 -39 18z" />
    <glyph glyph-name="y" unicode="y" horiz-adv-x="1341" 
d="M4 1398q10 19 39 19h272q23 0 35 -12q57 -84 162 -232t145 -206l306 438q20 12 32 12h275q28 0 39 -19q4 -7 4 -14q0 -12 -10 -24h2l-494 -703v-622q0 -13 -12.5 -24t-30.5 -11h-223q-19 0 -31 11t-12 24v622l-172 244l-324 459h2q-9 12 -9 23q0 8 5 15z" />
    <glyph glyph-name="z" unicode="z" horiz-adv-x="1193" 
d="M-18 16q-6 8 -6 17q0 10 8 22v-2l653 1071h-561q-17 0 -29 11t-12 24v223q0 14 12 24.5t29 10.5h1026q26 0 38 -13q8 -8 8 -17q0 -6 -3 -13l-660 -1081h617q20 0 30.5 -10t10.5 -25v-223q0 -14 -10.5 -24.5t-30.5 -10.5h-1084q-24 0 -36 16z" />
    <glyph glyph-name="braceleft" unicode="{" horiz-adv-x="708" 
d="M-65 717q0 23 28 33h-2l225 110v537q0 14 13 25.5t32 11.5h381q19 0 30 -11t11 -26v-226q0 -15 -11 -25.5t-30 -10.5h-110v-836h110q19 0 30 -11t11 -26v-227q0 -13 -11 -24t-30 -11h-381q-19 0 -32 11t-13 24v536l-82 41l-45 24t-53 27.5t-45 20.5h2q-28 10 -28 33z" />
    <glyph glyph-name="bar" unicode="|" horiz-adv-x="575" 
d="M102 35v1362q0 14 13 25.5t32 11.5h228q18 0 30.5 -11.5t12.5 -25.5v-1362q0 -13 -12.5 -24t-30.5 -11h-228q-19 0 -32 11t-13 24z" />
    <glyph glyph-name="braceright" unicode="}" horiz-adv-x="737" 
d="M45 35v227q0 15 11.5 26t31.5 11h109v836h-109q-20 0 -31.5 10.5t-11.5 25.5v226q0 15 11.5 26t31.5 11h379q19 0 32 -11.5t13 -25.5v-537q14 -8 84 -39q107 -57 143 -71h-2q26 -10 26 -33t-26 -33h2l-227 -111v-538q0 -13 -13 -24t-32 -11h-379q-20 0 -31.5 11t-11.5 24
z" />
    <glyph glyph-name="asciitilde" unicode="~" horiz-adv-x="950" 
d="M23 604q23 117 97.5 179.5t180.5 62.5q96 0 207 -51l10 -2q48 -21 66 -21q25 0 45 47q7 7 23 13.5t28 3.5l188 -56q18 -1 28.5 -17t2.5 -28v2q-40 -123 -107.5 -178t-164.5 -55q-96 0 -211 47l-23 10l-31 8q-7 2 -16.5 5.5t-14.5 5.5t-7 2q-12 0 -23 -41q-8 -14 -24 -23
t-33 -6l-189 51q-14 3 -23.5 15.5t-8.5 25.5zM504 797l2 -2z" />
    <glyph glyph-name="uni00A0" unicode="&#xa0;" horiz-adv-x="706" 
 />
    <glyph glyph-name="exclamdown" unicode="&#xa1;" horiz-adv-x="565" 
d="M100 1270q0 67 49.5 115.5t122.5 48.5q72 0 123 -49t51 -115q0 -67 -51.5 -116.5t-122.5 -49.5q-72 0 -122 49.5t-50 116.5zM115 20v965q0 14 13 25.5t32 11.5h227q18 0 30.5 -11.5t12.5 -25.5v-965q0 -14 -12.5 -25t-30.5 -11h-227q-20 0 -32.5 11t-12.5 25z" />
    <glyph glyph-name="cent" unicode="&#xa2;" horiz-adv-x="1187" 
d="M70 717q0 201 123.5 357.5t318.5 209.5v141q0 14 12.5 25.5t30.5 11.5h176q19 0 31 -11.5t12 -25.5v-125q181 -32 326 -167q10 -16 10.5 -36.5t-12.5 -35.5l-125 -125q-23 -23 -49 -21t-45 27l4 -2q-61 50 -109 66v-580q64 25 111 72q41 41 84 4l131 -133
q10 -16 10.5 -36.5t-12.5 -35.5q-57 -57 -145.5 -101t-178.5 -63v-98q0 -14 -12 -25.5t-31 -11.5h-176q-18 0 -30.5 11.5t-12.5 25.5v112q-195 53 -318.5 211t-123.5 359zM385 717q0 -85 33 -152.5t94 -107.5v516q-59 -42 -93 -109.5t-34 -146.5z" />
    <glyph glyph-name="sterling" unicode="&#xa3;" horiz-adv-x="1212" 
d="M-18 508v240q0 14 12.5 23t32.5 9h174l6 19v-2q27 71 31 77v-2q119 243 337 394q68 43 145 76t135.5 50t114.5 27t81 12.5t34 2.5q18 0 30.5 -11.5t12.5 -25.5v-236q0 -14 -12.5 -25.5t-30.5 -11.5q-6 0 -19.5 -1t-50.5 -7.5t-75 -18t-89.5 -35.5t-98.5 -56
q-119 -83 -201 -226h151q20 0 33 -9t13 -23v-240q0 -15 -13 -25t-33 -10h-258q-22 -141 -24 -164h663q18 0 30.5 -11.5t12.5 -25.5v-237q0 -13 -12.5 -24t-30.5 -11h-948q-19 0 -31 11t-12 24v119q0 161 23 319h-88q-20 0 -32.5 10t-12.5 25z" />
    <glyph glyph-name="yen" unicode="&#xa5;" horiz-adv-x="1310" 
d="M-22.5 1414.5q10.5 19.5 38.5 19.5h277q25 0 37 -15q196 -288 313 -456l311 456q15 15 35 15h279q28 0 38.5 -19.5t-6.5 -38.5h3l-398 -555h101q18 0 30.5 -11.5t12.5 -25.5v-159q0 -14 -12.5 -25.5t-30.5 -11.5h-207v-84h207q18 0 30.5 -11.5t12.5 -25.5v-154
q0 -14 -12.5 -25.5t-30.5 -11.5h-207v-241q0 -13 -12 -24t-31 -11h-228q-18 0 -30.5 11t-12.5 24v241h-213q-19 0 -32 11.5t-13 25.5v154q0 14 13 25.5t32 11.5h213v84h-215q-19 0 -32 11.5t-13 25.5v159q0 14 13 25.5t32 11.5h101l-389 555h2q-17 19 -6.5 38.5z" />
    <glyph glyph-name="section" unicode="&#xa7;" horiz-adv-x="851" 
d="M55 299q0 14 12.5 24.5t32.5 10.5h164q20 0 32.5 -10.5t12.5 -24.5q0 -57 41 -74q29 -14 62 -14q36 0 67 16q37 18 37 72q0 58 -41 76q-31 14 -63 14q-9 0 -29 2t-64.5 12t-82.5 27q-81 42 -130.5 118.5t-50.5 168.5q0 121 76 209q-76 82 -76 207q0 92 51.5 169
t137.5 119q37 17 79 27t61 12t28 2q10 0 30.5 -2t62 -12t75.5 -27q87 -42 137.5 -118.5t50.5 -169.5q0 -14 -12.5 -24.5t-30.5 -10.5h-166q-19 0 -31 10.5t-12 24.5q0 55 -41 73q-16 9 -57 15l-8 2l-4 -2h-9q-38 -5 -55 -17q-33 -17 -33 -71q0 -59 41 -76q14 -6 29.5 -10
t24.5 -5h8q88 0 168 -36q91 -42 138.5 -118t49.5 -173q0 -126 -72 -207q72 -81 72 -209q0 -93 -50.5 -170t-137.5 -119q-34 -17 -75.5 -27t-62 -12t-30.5 -2q-9 0 -28 2t-61 12t-79 27q-86 42 -137.5 119.5t-51.5 169.5zM309 717q0 -56 41 -76h-2q38 -14 64 -14q32 0 67 16
q37 18 37 74q0 53 -43 74h4q-38 14 -63 14q-21 0 -70 -17h4q-39 -19 -39 -71z" />
    <glyph glyph-name="dieresis" unicode="&#xa8;" horiz-adv-x="770" 
d="M-2 1282q0 66 51 115t117 49q69 0 121.5 -49t52.5 -115t-52.5 -115t-121.5 -49q-66 0 -117 49t-51 115zM424 1282q0 66 51.5 115t120.5 49q68 0 119 -49t51 -115t-51 -115t-119 -49q-69 0 -120.5 49t-51.5 115z" />
    <glyph glyph-name="copyright" unicode="&#xa9;" horiz-adv-x="1417" 
d="M61 813q0 168 83 310.5t227 226.5t315 84q172 0 317 -84t228.5 -226.5t83.5 -310.5q0 -126 -49.5 -240t-133.5 -196.5t-200.5 -131t-245.5 -48.5q-128 0 -244 48.5t-199.5 131t-132.5 196.5t-49 240zM299 813q0 -162 114 -278.5t273 -116.5q161 0 275 116t114 279
q0 164 -114 280.5t-275 116.5q-159 0 -273 -116.5t-114 -280.5zM383 815q0 126 94.5 218.5t222.5 92.5q135 0 228 -90q9 -10 9 -27t-9 -26l-72 -65q-27 -20 -51 0q-50 47 -105 47q-57 0 -97 -44t-40 -106q0 -60 40 -102.5t97 -42.5q54 0 103 43q11 9 26 9t27 -9l72 -64
q9 -11 9 -27t-9 -24q-92 -92 -228 -92q-128 0 -222.5 92.5t-94.5 216.5z" />
    <glyph glyph-name="guillemotleft" unicode="&#xab;" horiz-adv-x="1032" 
d="M0 659q0 13 6 21q64 80 185 236.5t169 216.5q10 10 29.5 13t32.5 -7l145 -115q25 -25 6 -51l-241 -311l250 -283h-2q12 -12 9.5 -27t-16.5 -26h2l-147 -121q-13 -9 -29.5 -7t-29.5 11l-363 428q-6 9 -6 22zM468 659q0 13 7 21l350 453q10 10 28.5 13t31.5 -7l145 -115
q14 -11 16 -26t-10 -27l4 2l-227 -316l234 -280q9 -12 6 -26t-15 -25h2l-149 -121q-26 -19 -57 4l-359 428q-7 9 -7 22z" />
    <glyph glyph-name="uni00AD" unicode="&#xad;" horiz-adv-x="907" 
d="M47 616v207q0 14 13 25.5t32 11.5h684q20 0 31.5 -11t11.5 -26v-207q0 -13 -11.5 -23.5t-31.5 -10.5h-684q-19 0 -32 10.5t-13 23.5z" />
    <glyph glyph-name="registered" unicode="&#xae;" horiz-adv-x="1382" 
d="M-10 813q0 138 54 263.5t145 217.5t218.5 146.5t268.5 54.5q142 0 270 -54.5t220 -146.5t146 -217.5t54 -263.5t-54 -263.5t-146 -216.5t-220 -144.5t-270 -53.5q-141 0 -268.5 53.5t-218.5 144.5t-145 216.5t-54 263.5zM242 813q0 -120 58.5 -222.5t158.5 -162
t217 -59.5q181 0 309.5 130.5t128.5 313.5q0 185 -127.5 314.5t-310.5 129.5q-179 0 -306.5 -130t-127.5 -314zM451 530v557q0 15 10.5 25t30.5 10h192q109 0 175.5 -55.5t66.5 -144.5q0 -44 -27.5 -87.5t-79.5 -74.5l107 -217q8 -19 -3.5 -34t-37.5 -15h-101q-29 0 -43 28
l-90 213h-18v-205q0 -14 -12.5 -25t-30.5 -11h-98q-20 0 -30.5 10.5t-10.5 25.5zM621 874h63q39 0 56.5 25t1.5 50.5t-58 25.5h-63v-101z" />
    <glyph glyph-name="degree" unicode="&#xb0;" horiz-adv-x="747" 
d="M23 1128q0 137 100 236.5t239 99.5q141 0 242 -99.5t101 -236.5q0 -135 -101 -233t-242 -98q-139 0 -239 98t-100 233zM264 1128q0 -43 29 -73.5t69 -30.5q41 0 71 30.5t30 73.5q0 44 -30 77.5t-71 33.5q-40 0 -69 -33.5t-29 -77.5z" />
    <glyph glyph-name="plusminus" unicode="&#xb1;" horiz-adv-x="1060" 
d="M59 680v197q0 14 11.5 24t31.5 10h260v269q0 13 12 23.5t32 10.5h202q19 0 31 -10.5t12 -23.5v-269h260q18 0 29.5 -10t11.5 -24v-197q0 -12 -12 -23.5t-29 -11.5h-260v-272q0 -14 -12 -25.5t-31 -11.5h-202q-20 0 -32 11t-12 26v272h-260q-19 0 -31 11.5t-12 23.5z
M147 0h715v244h-715v-244z" />
    <glyph glyph-name="uni00B2" unicode="&#xb2;" horiz-adv-x="698" 
d="M39 616v127l276 387q29 42 29 72q0 22 -11.5 34.5t-27.5 12.5q-21 0 -35 -12.5t-14 -38.5q0 -13 -13 -24t-32 -11h-129q-19 0 -31 11t-12 24q0 109 75 180.5t195 71.5q112 0 187 -68.5t75 -169.5q0 -93 -63 -178l-178 -254h211q17 0 29 -9.5t12 -22.5v-132
q0 -13 -12 -23.5t-29 -10.5h-459q-19 0 -31 10.5t-12 23.5z" />
    <glyph glyph-name="uni00B3" unicode="&#xb3;" horiz-adv-x="681" 
d="M53 846q0 12 12 23.5t31 11.5h129q19 0 32 -11.5t13 -23.5q0 -27 15.5 -45.5t38.5 -18.5q26 0 44.5 19.5t18.5 44.5q0 33 -14 55.5t-37 22.5h-55q-19 0 -31 9.5t-12 24.5v109q0 14 12.5 25.5t30.5 11.5h57q22 0 33.5 20.5t11.5 46.5q0 25 -18 43.5t-41 18.5t-40.5 -18.5
t-17.5 -43.5q0 -14 -13 -25t-32 -11h-125q-19 0 -31 11t-12 25q0 107 79 185t192 78t194.5 -75t81.5 -188q0 -41 -18.5 -83.5t-49.5 -73.5q74 -68 74 -168q0 -123 -82.5 -193.5t-199.5 -70.5q-114 0 -192.5 77t-78.5 187z" />
    <glyph glyph-name="acute" unicode="&#xb4;" horiz-adv-x="569" 
d="M-1 1281q5 16 24 22q66 37 186.5 102t173.5 94q52 19 61 4l115 -182q4 -10 -3 -23.5t-19 -19.5h2l-365 -191q-55 -19 -68 -2l-100 168q-12 12 -7 28z" />
    <glyph glyph-name="periodcentered" unicode="&#xb7;" horiz-adv-x="417" 
d="M20 723q0 67 52 117.5t121 50.5q73 0 123.5 -50t50.5 -118q0 -67 -50.5 -115.5t-123.5 -48.5q-69 0 -121 49t-52 115z" />
    <glyph glyph-name="cedilla" unicode="&#xb8;" horiz-adv-x="878" 
d="M41 -104q0 14 12.5 25t30.5 11h184q19 0 32 -11t13 -25q0 -43 29 -74t70 -31q38 0 67 31t29 74q0 45 -28.5 75.5t-67.5 30.5q-18 0 -30.5 11t-12.5 24v188q0 15 12 24t31 9q152 0 261 -106.5t109 -255.5q0 -148 -109 -255.5t-261 -107.5q-154 0 -262.5 107t-108.5 256z
" />
    <glyph glyph-name="uni00B9" unicode="&#xb9;" horiz-adv-x="546" 
d="M35 1340q6 13 26 20h-2l181 74h120q19 0 32.5 -11.5t13.5 -25.5v-672q0 -14 -13.5 -25.5t-32.5 -11.5h-131q-18 0 -30.5 11.5t-12.5 25.5v465q-8 -4 -25 -8.5t-20 -5.5v2q-15 -6 -32 -1.5t-25 13.5l-47 125q-8 12 -2 25z" />
    <glyph glyph-name="guillemotright" unicode="&#xbb;" horiz-adv-x="1095" 
d="M14 365l246 294l-229 314l4 -2q-11 13 -9 27.5t15 25.5l147 115q14 9 30.5 7t27.5 -13l356 -453q8 -8 8 -21t-8 -22q-58 -69 -181.5 -214.5t-182.5 -213.5q-31 -24 -56 -4l-149 121q-10 9 -16 21.5t-3 17.5zM506 377q78 94 233 280l-227 316l4 -2q-12 12 -10 27t16 26
l146 115q11 10 30 7t29 -13l356 -453q7 -8 7 -21t-7 -22q-277 -324 -364 -428q-31 -23 -60 -4l-147 121q-25 22 -6 51z" />
    <glyph glyph-name="questiondown" unicode="&#xbf;" horiz-adv-x="1003" 
d="M41 426q0 128 91.5 234t223.5 149v213q0 12 11.5 22.5t31.5 10.5h207q19 0 31 -10.5t12 -22.5v-414q0 -15 -13.5 -25t-33.5 -10q-71 4 -122 -8t-77 -36t-37.5 -49.5t-11.5 -53.5q0 -147 140 -147q54 0 90.5 31t36.5 83q0 13 12.5 24t30.5 11h227q20 0 30.5 -10.5
t10.5 -24.5q0 -180 -126 -296.5t-312 -116.5q-130 0 -231 49.5t-161.5 152t-60.5 244.5zM324 1280q0 74 52.5 118t121.5 44q70 0 121 -42.5t51 -119.5q0 -75 -52.5 -119.5t-121.5 -44.5q-70 0 -121 43.5t-51 120.5z" />
    <glyph glyph-name="Agrave" unicode="&#xc0;" 
d="M-23 49q88 226 271.5 697t271.5 696q10 23 39.5 23t40.5 -23l543 -1393q8 -19 -3 -34t-34 -15h-248q-12 0 -24 7.5t-15 17.5v-2l-55 141h-410l-51 -141v2q-3 -10 -15.5 -17.5t-27.5 -7.5h-244q-25 0 -36 14.5t-3 34.5zM303 1697.5q-5 16.5 6 31.5v-3l111 177q9 14 61 -5
l340 -194h-4q19 -8 25 -22.5t-6 -28.5v2l-99 -166q-15 -18 -65 0l-346 188q-18 4 -23 20.5zM436 412h246l-72 213q-37 126 -49 198q-18 -97 -51 -198z" />
    <glyph glyph-name="Aacute" unicode="&#xc1;" 
d="M-23 49q88 226 271.5 697t271.5 696q10 23 39.5 23t40.5 -23l543 -1393q8 -19 -3 -34t-34 -15h-248q-12 0 -24 7.5t-15 17.5v-2l-55 141h-410l-51 -141v2q-3 -10 -15.5 -17.5t-27.5 -7.5h-244q-25 0 -36 14.5t-3 34.5zM283.5 1682.5q4.5 15.5 23.5 21.5q67 37 188.5 103
t172.5 94q52 19 61 4l115 -183q4 -10 -3.5 -23.5t-19.5 -19.5h2l-364 -190q-55 -19 -68 -2l-100 168q-12 12 -7.5 27.5zM436 412h246l-72 213q-37 126 -49 198q-18 -97 -51 -198z" />
    <glyph glyph-name="Acircumflex" unicode="&#xc2;" 
d="M-23 49q88 226 271.5 697t271.5 696q10 23 39.5 23t40.5 -23l543 -1393q8 -19 -3 -34t-34 -15h-248q-12 0 -24 7.5t-15 17.5v-2l-55 141h-410l-51 -141v2q-3 -10 -15.5 -17.5t-27.5 -7.5h-244q-25 0 -36 14.5t-3 34.5zM188 1639q5 17 23 24h-4l332 190q4 3 19.5 3
t21.5 -3l338 -180h-5q19 -8 25.5 -22t-4.5 -29v2l-88 -149q-22 -22 -58 -15l-229 129q-29 -17 -101 -60.5t-110 -64.5q-11 -5 -32.5 -0.5t-32.5 15.5l-90 133v-2q-10 12 -5 29zM436 412h246l-72 213q-37 126 -49 198q-18 -97 -51 -198z" />
    <glyph glyph-name="Atilde" unicode="&#xc3;" 
d="M-23 49q88 226 271.5 697t271.5 696q10 23 39.5 23t40.5 -23l543 -1393q8 -19 -3 -34t-34 -15h-248q-12 0 -24 7.5t-15 17.5v-2l-55 141h-410l-51 -141v2q-3 -10 -15.5 -17.5t-27.5 -7.5h-244q-25 0 -36 14.5t-3 34.5zM186 1597q17 111 82.5 169.5t159.5 58.5
q97 0 172 -47h4q43 -19 64 -19q17 0 30 35q6 9 24.5 15t37.5 3l147 -47h-4q20 -5 30 -18t3 -29l2 2q-33 -114 -92.5 -164.5t-147.5 -50.5q-71 0 -174 43l-26 8q-43 19 -54 19q-4 0 -12 -31q-8 -15 -24 -24.5t-33 -6.5l-158 43h2q-14 3 -23.5 15.5t-9.5 25.5zM436 412h246
l-72 213q-37 126 -49 198q-18 -97 -51 -198z" />
    <glyph glyph-name="Adieresis" unicode="&#xc4;" 
d="M-23 49q88 226 271.5 697t271.5 696q10 23 39.5 23t40.5 -23l543 -1393q8 -19 -3 -34t-34 -15h-248q-12 0 -24 7.5t-15 17.5v-2l-55 141h-410l-51 -141v2q-3 -10 -15.5 -17.5t-27.5 -7.5h-244q-25 0 -36 14.5t-3 34.5zM188 1657q0 66 51 115t117 49q69 0 121.5 -49
t52.5 -115t-52.5 -115t-121.5 -49q-66 0 -117 49t-51 115zM436 412h246l-72 213q-37 126 -49 198q-18 -97 -51 -198zM614 1657q0 66 51.5 115t120.5 49q68 0 119 -49t51 -115t-51 -115t-119 -49q-69 0 -120.5 49t-51.5 115z" />
    <glyph glyph-name="Aring" unicode="&#xc5;" horiz-adv-x="1167" 
d="M-4 49l485 1245q-92 26 -150.5 97t-58.5 178q0 69 26.5 124.5t69.5 89.5t98 52.5t112.5 18.5t112.5 -18t98 -52.5t69.5 -90t26.5 -124.5q0 -110 -58.5 -181t-150.5 -96l485 -1243q8 -19 -3 -34t-34 -15h-247q-12 0 -24 7.5t-15 17.5v-2l-56 141h-409l-51 -141v2
q-3 -10 -15.5 -17.5t-27.5 -7.5h-244q-25 0 -36 14.5t-3 34.5zM455 412h245l-71 213q-37 126 -49 198q-17 -90 -52 -198zM485 1569q0 -46 29.5 -72t65 -26.5t65 26t29.5 72.5q0 44 -29.5 70t-65 26.5t-65 -25t-29.5 -71.5z" />
    <glyph glyph-name="AE" unicode="&#xc6;" horiz-adv-x="1619" 
d="M14 17.5q-12 17.5 2 37.5l-2 -2l627 1352q13 26 45 29h778q19 0 31 -11.5t12 -25.5v-215q0 -13 -12 -24t-31 -11h-444v-281h352q19 0 32 -11.5t13 -25.5v-211q0 -13 -13 -23.5t-32 -10.5h-352v-301h467q18 0 30.5 -11t12.5 -24v-213q0 -13 -12.5 -24t-30.5 -11h-715
q-19 0 -31 11t-12 24v143h-303q-17 -29 -38 -83t-32 -77v2q-4 -7 -18 -13.5t-23 -6.5h-262q-27 0 -39 17.5zM545 446h184q0 30 2 91t6.5 175t7.5 220z" />
    <glyph glyph-name="Ccedilla" unicode="&#xc7;" horiz-adv-x="1421" 
d="M76 721q0 196 97.5 364t267 267.5t370.5 99.5q152 0 285 -56t231 -157l-2 2q13 -12 13 -27.5t-13 -27.5l-162 -162q-12 -6 -28.5 -6t-26.5 6q-125 125 -297 125t-295 -125.5t-123 -302.5q0 -176 123 -300t295 -124q168 0 293 125q12 8 31 8t32 -8l160 -168l-2 2
q13 -11 13 -26t-13 -27q-48 -50 -119 -100t-141 -76q92 -60 92 -181q0 -149 -106.5 -237t-272.5 -88t-270.5 94.5t-104.5 247.5q0 15 13 24t33 9h188q43 0 43 -33q0 -41 28 -63.5t70 -22.5q40 0 70.5 33.5t30.5 78.5q0 38 -22.5 67.5t-53.5 37.5q-196 6 -363 104
t-265.5 263.5t-98.5 359.5z" />
    <glyph glyph-name="Egrave" unicode="&#xc8;" horiz-adv-x="1204" 
d="M127 35v1362q0 14 12 25.5t31 11.5h891q18 0 30.5 -11.5t12.5 -25.5v-219q0 -14 -12.5 -25.5t-30.5 -11.5h-621v-275h525q18 0 29.5 -11.5t11.5 -25.5v-221q0 -13 -11.5 -24t-29.5 -11h-525v-274h637q19 0 32 -11.5t13 -25.5v-227q0 -13 -13 -24t-32 -11h-907
q-19 0 -31 11t-12 24zM368.5 1740.5q-4.5 16.5 6.5 31.5v-3l110 177q9 16 62 -4l340 -195h-4q19 -8 24.5 -22.5t-6.5 -28.5v2l-98 -166q-16 -19 -66 0l-346 188q-18 4 -22.5 20.5z" />
    <glyph glyph-name="Eacute" unicode="&#xc9;" horiz-adv-x="1204" 
d="M127 35v1362q0 14 12 25.5t31 11.5h891q18 0 30.5 -11.5t12.5 -25.5v-219q0 -14 -12.5 -25.5t-30.5 -11.5h-621v-275h525q18 0 29.5 -11.5t11.5 -25.5v-221q0 -13 -11.5 -24t-29.5 -11h-525v-274h637q19 0 32 -11.5t13 -25.5v-227q0 -13 -13 -24t-32 -11h-907
q-19 0 -31 11t-12 24zM373.5 1704.5q4.5 15.5 23.5 21.5q67 37 188.5 103t172.5 94q52 19 61 4l115 -182q4 -10 -3.5 -23.5t-19.5 -19.5h2l-364 -191q-55 -19 -68 -2l-100 168q-12 12 -7.5 27.5z" />
    <glyph glyph-name="Ecircumflex" unicode="&#xca;" horiz-adv-x="1204" 
d="M127 35v1362q0 14 12 25.5t31 11.5h891q18 0 30.5 -11.5t12.5 -25.5v-219q0 -14 -12.5 -25.5t-30.5 -11.5h-621v-275h525q18 0 29.5 -11.5t11.5 -25.5v-221q0 -13 -11.5 -24t-29.5 -11h-525v-274h637q19 0 32 -11.5t13 -25.5v-227q0 -13 -13 -24t-32 -11h-907
q-19 0 -31 11t-12 24zM257.5 1710.5q5.5 17.5 23.5 24.5h-5l332 190q4 3 19.5 3t21.5 -3l338 -180h-4q19 -8 25.5 -22t-4.5 -29v2l-89 -150q-21 -21 -57 -14l-229 129q-29 -17 -101 -60.5t-110 -64.5q-11 -5 -33 -1t-33 15l-90 133v-2q-10 12 -4.5 29.5z" />
    <glyph glyph-name="Edieresis" unicode="&#xcb;" horiz-adv-x="1204" 
d="M127 35v1362q0 14 12 25.5t31 11.5h891q18 0 30.5 -11.5t12.5 -25.5v-219q0 -14 -12.5 -25.5t-30.5 -11.5h-621v-275h525q18 0 29.5 -11.5t11.5 -25.5v-221q0 -13 -11.5 -24t-29.5 -11h-525v-274h637q19 0 32 -11.5t13 -25.5v-227q0 -13 -13 -24t-32 -11h-907
q-19 0 -31 11t-12 24zM266 1686q0 66 51 114.5t117 48.5q69 0 121.5 -48.5t52.5 -114.5t-52.5 -115t-121.5 -49q-66 0 -117 49t-51 115zM692 1686q0 66 51.5 114.5t120.5 48.5q68 0 119 -48.5t51 -114.5t-51 -115t-119 -49q-69 0 -120.5 49t-51.5 115z" />
    <glyph glyph-name="Igrave" unicode="&#xcc;" horiz-adv-x="716" 
d="M29 35v209q0 13 12.5 24t30.5 11h118v876h-110q-18 0 -30.5 11t-12.5 24v207q0 14 12.5 25.5t30.5 11.5h532q19 0 31 -11.5t12 -25.5v-207q0 -13 -12 -24t-31 -11h-108v-876h117q18 0 30.5 -11t12.5 -24v-209q0 -13 -12.5 -24t-30.5 -11h-549q-18 0 -30.5 11t-12.5 24z
M81.5 1740.5q-4.5 16.5 6.5 31.5v-3l111 177q9 15 61 -4l340 -195h-4q19 -8 24.5 -22.5t-6.5 -28.5v2l-98 -166q-15 -18 -65 0l-347 188q-18 4 -22.5 20.5z" />
    <glyph glyph-name="Iacute" unicode="&#xcd;" horiz-adv-x="716" 
d="M29 35v209q0 13 12.5 24t30.5 11h118v876h-110q-18 0 -30.5 11t-12.5 24v207q0 14 12.5 25.5t30.5 11.5h532q19 0 31 -11.5t12 -25.5v-207q0 -13 -12 -24t-31 -11h-108v-876h117q18 0 30.5 -11t12.5 -24v-209q0 -13 -12.5 -24t-30.5 -11h-549q-18 0 -30.5 11t-12.5 24z
M68.5 1721.5q4.5 15.5 23.5 21.5q66 37 186.5 101.5t174.5 94.5q52 19 61 5l115 -183q4 -10 -3.5 -23.5t-19.5 -19.5h2l-364 -190q-55 -19 -68 -2l-100 168q-12 12 -7.5 27.5z" />
    <glyph glyph-name="Icircumflex" unicode="&#xce;" horiz-adv-x="716" 
d="M-25 1708.5q5 17.5 23 24.5h-4l332 190q4 3 19.5 3t21.5 -3l338 -180h-5q19 -8 25.5 -22t-4.5 -29v2l-88 -150q-21 -21 -58 -14l-229 129q-29 -17 -101 -60.5t-110 -64.5q-11 -5 -32.5 -1t-32.5 15l-90 133v-2q-10 12 -5 29.5zM29 35v209q0 13 12.5 24t30.5 11h118v876
h-110q-18 0 -30.5 11t-12.5 24v207q0 14 12.5 25.5t30.5 11.5h532q19 0 31 -11.5t12 -25.5v-207q0 -13 -12 -24t-31 -11h-108v-876h117q18 0 30.5 -11t12.5 -24v-209q0 -13 -12.5 -24t-30.5 -11h-549q-18 0 -30.5 11t-12.5 24z" />
    <glyph glyph-name="Idieresis" unicode="&#xcf;" horiz-adv-x="716" 
d="M-23 1686q0 66 51 114.5t117 48.5q69 0 121.5 -48.5t52.5 -114.5t-52.5 -115t-121.5 -49q-66 0 -117 49t-51 115zM29 35v209q0 13 12.5 24t30.5 11h118v876h-110q-18 0 -30.5 11t-12.5 24v207q0 14 12.5 25.5t30.5 11.5h532q19 0 31 -11.5t12 -25.5v-207q0 -13 -12 -24
t-31 -11h-108v-876h117q18 0 30.5 -11t12.5 -24v-209q0 -13 -12.5 -24t-30.5 -11h-549q-18 0 -30.5 11t-12.5 24zM403 1686q0 66 51.5 114.5t120.5 48.5q68 0 119 -48.5t51 -114.5t-51 -115t-119 -49q-69 0 -120.5 49t-51.5 115z" />
    <glyph glyph-name="Eth" unicode="&#xd0;" horiz-adv-x="1355" 
d="M-20 612v199q0 14 10 24.5t30 10.5h107v551q0 14 12 25.5t31 11.5h227q84 0 157 -6t161 -25t159.5 -50.5t141 -86.5t116.5 -128t76 -181t29 -240q0 -127 -28.5 -232t-75.5 -178t-115 -129t-140.5 -89t-159 -53.5t-162.5 -28t-159 -7.5h-227q-19 0 -31 11t-12 24v543h-107
q-20 0 -30 10t-10 24zM440 289q53 0 95 3t94 13.5t91 28t78.5 50t64.5 76.5t41 109.5t16 147.5q0 430 -480 430v-301h211q19 0 32 -11t13 -24v-199q0 -13 -13 -23.5t-32 -10.5h-211v-289z" />
    <glyph glyph-name="Ntilde" unicode="&#xd1;" horiz-adv-x="1519" 
d="M129 35v1362q0 14 12.5 25.5t30.5 11.5h231q23 0 35 -15q107 -154 304.5 -434t295.5 -420v832q0 14 12 25.5t31 11.5h226q19 0 31 -11.5t12 -25.5v-1362q0 -13 -12 -24t-31 -11h-230q-24 0 -35 14q-59 84 -267.5 383t-330.5 473v-835q0 -13 -12.5 -24t-30.5 -11h-229
q-18 0 -30.5 11t-12.5 24zM379 1618q17 111 82.5 169t159.5 58q97 0 172 -47h4q40 -18 63 -18q18 0 31 35q6 10 24 15.5t37 2.5l148 -47h-4q20 -5 29.5 -17.5t2.5 -29.5l2 2q-33 -115 -92 -165t-147 -50q-71 0 -174 43l-27 8q-41 18 -53 18q-4 0 -12 -30q-8 -15 -24.5 -24.5
t-33.5 -6.5l-157 43h2q-14 3 -23.5 15.5t-9.5 25.5z" />
    <glyph glyph-name="Ograve" unicode="&#xd2;" horiz-adv-x="1306" 
d="M82 911q0 109 44 208.5t117.5 172t175.5 115.5t214 43q148 0 274.5 -72.5t200.5 -197t74 -269.5q0 -146 -74 -269t-200.5 -194t-274.5 -71q-149 0 -276 71t-201 194t-74 269zM135 35v225q0 14 12 25.5t31 11.5h897q19 0 32 -11.5t13 -25.5v-225q0 -13 -13 -24t-32 -11
h-897q-19 0 -31 11t-12 24zM376.5 1728q-4.5 16 6.5 31v-2l111 176q9 15 61 -4l340 -194h-4q19 -8 24.5 -23t-6.5 -29v3l-98 -166q-16 -19 -66 0l-346 188q-18 4 -22.5 20zM395 911q0 -102 69.5 -169.5t168.5 -67.5t167 67.5t68 169.5q0 101 -68.5 171.5t-166.5 70.5
q-99 0 -168.5 -70.5t-69.5 -171.5z" />
    <glyph glyph-name="Oacute" unicode="&#xd3;" horiz-adv-x="1306" 
d="M82 911q0 109 44 208.5t117.5 172t175.5 115.5t214 43q148 0 274.5 -72.5t200.5 -197t74 -269.5q0 -146 -74 -269t-200.5 -194t-274.5 -71q-149 0 -276 71t-201 194t-74 269zM135 35v225q0 14 12 25.5t31 11.5h897q19 0 32 -11.5t13 -25.5v-225q0 -13 -13 -24t-32 -11
h-897q-19 0 -31 11t-12 24zM363.5 1717.5q4.5 15.5 23.5 21.5q66 37 186.5 101.5t174.5 94.5q52 19 61 4l115 -182q4 -10 -3.5 -23.5t-19.5 -19.5h2l-364 -190q-55 -19 -68 -2l-100 168q-12 12 -7.5 27.5zM395 911q0 -102 69.5 -169.5t168.5 -67.5t167 67.5t68 169.5
q0 101 -68.5 171.5t-166.5 70.5q-99 0 -168.5 -70.5t-69.5 -171.5z" />
    <glyph glyph-name="Ocircumflex" unicode="&#xd4;" horiz-adv-x="1306" 
d="M82 911q0 109 44 208.5t117.5 172t175.5 115.5t214 43q148 0 274.5 -72.5t200.5 -197t74 -269.5q0 -146 -74 -269t-200.5 -194t-274.5 -71q-149 0 -276 71t-201 194t-74 269zM135 35v225q0 14 12 25.5t31 11.5h897q19 0 32 -11.5t13 -25.5v-225q0 -13 -13 -24t-32 -11
h-897q-19 0 -31 11t-12 24zM267.5 1698q5.5 17 23.5 24h-4l331 191q4 3 19.5 3t21.5 -3l338 -180h-4q19 -8 25.5 -22.5t-4.5 -29.5v2l-88 -149q-21 -21 -58 -14l-229 129q-29 -17 -101 -60.5t-110 -64.5q-11 -5 -33 -1t-33 15l-90 133v-2q-10 12 -4.5 29zM395 911
q0 -102 69.5 -169.5t168.5 -67.5t167 67.5t68 169.5q0 101 -68.5 171.5t-166.5 70.5q-99 0 -168.5 -70.5t-69.5 -171.5z" />
    <glyph glyph-name="Otilde" unicode="&#xd5;" horiz-adv-x="1306" 
d="M82 911q0 109 44 208.5t117.5 172t175.5 115.5t214 43q148 0 274.5 -72.5t200.5 -197t74 -269.5q0 -146 -74 -269t-200.5 -194t-274.5 -71q-149 0 -276 71t-201 194t-74 269zM135 35v225q0 14 12 25.5t31 11.5h897q19 0 32 -11.5t13 -25.5v-225q0 -13 -13 -24t-32 -11
h-897q-19 0 -31 11t-12 24zM268 1626q17 111 82.5 169t159.5 58q97 0 172 -47h4q40 -18 64 -18q17 0 30 35q6 9 24.5 15t37.5 3l147 -47h-4q20 -5 30 -18t3 -29l2 2q-33 -114 -92.5 -164.5t-147.5 -50.5q-71 0 -174 43l-26 8q-43 19 -54 19q-4 0 -12 -31q-8 -15 -24 -24.5
t-33 -6.5l-158 43h2q-14 3 -23.5 15.5t-9.5 25.5zM395 911q0 -102 69.5 -169.5t168.5 -67.5t167 67.5t68 169.5q0 101 -68.5 171.5t-166.5 70.5q-99 0 -168.5 -70.5t-69.5 -171.5z" />
    <glyph glyph-name="Odieresis" unicode="&#xd6;" horiz-adv-x="1306" 
d="M82 911q0 109 44 208.5t117.5 172t175.5 115.5t214 43q148 0 274.5 -72.5t200.5 -197t74 -269.5q0 -146 -74 -269t-200.5 -194t-274.5 -71q-149 0 -276 71t-201 194t-74 269zM135 35v225q0 14 12 25.5t31 11.5h897q19 0 32 -11.5t13 -25.5v-225q0 -13 -13 -24t-32 -11
h-897q-19 0 -31 11t-12 24zM270 1675q0 66 51 115t117 49q69 0 121.5 -49t52.5 -115t-52.5 -115t-121.5 -49q-66 0 -117 49t-51 115zM395 911q0 -102 69.5 -169.5t168.5 -67.5t167 67.5t68 169.5q0 101 -68.5 171.5t-166.5 70.5q-99 0 -168.5 -70.5t-69.5 -171.5zM696 1675
q0 66 51.5 115t120.5 49q68 0 119 -49t51 -115t-51 -115t-119 -49q-69 0 -120.5 49t-51.5 115z" />
    <glyph glyph-name="multiply" unicode="&#xd7;" horiz-adv-x="825" 
d="M1.5 898q0.5 17 12.5 28l140 137q10 9 26.5 9t28.5 -9l176 -176l174 174q27 20 53 0l140 -137l-2 2q14 -10 14 -28t-14 -28l-175 -174l175 -174q15 -12 15 -27.5t-15 -27.5l-140 -137q-26 -17 -53 0l-176 176l-172 -176q-12 -8 -31.5 -6t-32.5 12l-131 133l2 -2
q-14 12 -14 27.5t14 27.5l177 174l-179 176v-2q-13 11 -12.5 28z" />
    <glyph glyph-name="Oslash" unicode="&#xd8;" horiz-adv-x="1269" 
d="M82 911q0 109 44 208.5t117.5 172t175.5 115.5t214 43q105 0 203 -39l34 51q12 21 41 21h238q28 0 38 -19t-5 -41l-123 -176q123 -149 123 -336q0 -146 -74 -269t-200.5 -194t-274.5 -71q-86 0 -156 20l-28 -43q-10 -12 -27 -12h-242q-30 0 -40.5 16.5t7.5 38.5h-2
l93 140q-156 156 -156 374zM135 14v226q0 14 12 25t31 11h897q19 0 32 -11t13 -25v-226q0 -13 -13 -23.5t-32 -10.5h-897q-19 0 -31 10.5t-12 23.5zM395 911q0 -102 69.5 -169.5t168.5 -67.5t167 67.5t68 169.5q0 101 -68.5 171.5t-166.5 70.5q-99 0 -168.5 -70.5
t-69.5 -171.5z" />
    <glyph glyph-name="Ugrave" unicode="&#xd9;" horiz-adv-x="1515" 
d="M129 584v813q0 14 12.5 25.5t30.5 11.5h1133q19 0 31 -11.5t12 -25.5v-813q0 -21 -2.5 -53t-20.5 -106t-49 -136q-75 -149 -213.5 -229t-323.5 -80q-179 0 -319.5 83t-218.5 228q-30 61 -48 134.5t-21 106t-3 52.5zM442 584q0 -80 43 -164q79 -141 254 -141
q177 0 252 141q19 36 30.5 78.5t13 60.5t1.5 27v569h-594v-571zM481 1732q-5 16 6 31v-2l111 176q9 15 61 -4l340 -194h-4q19 -8 25 -22.5t-6 -28.5v2l-99 -166q-15 -18 -65 0l-346 188q-18 4 -23 20z" />
    <glyph glyph-name="Uacute" unicode="&#xda;" horiz-adv-x="1515" 
d="M129 584v813q0 14 12.5 25.5t30.5 11.5h1133q19 0 31 -11.5t12 -25.5v-813q0 -21 -2.5 -53t-20.5 -106t-49 -136q-75 -149 -213.5 -229t-323.5 -80q-179 0 -319.5 83t-218.5 228q-30 61 -48 134.5t-21 106t-3 52.5zM442 584q0 -80 43 -164q79 -141 254 -141
q177 0 252 141q19 36 30.5 78.5t13 60.5t1.5 27v569h-594v-571zM468 1725.5q5 15.5 24 21.5q67 38 189 104t171 93q52 19 61 4l115 -183q4 -10 -3 -23.5t-19 -19.5h2l-365 -190q-55 -19 -68 -2l-100 168q-12 12 -7 27.5z" />
    <glyph glyph-name="Ucircumflex" unicode="&#xdb;" horiz-adv-x="1515" 
d="M129 584v813q0 14 12.5 25.5t30.5 11.5h1133q19 0 31 -11.5t12 -25.5v-813q0 -21 -2.5 -53t-20.5 -106t-49 -136q-75 -149 -213.5 -229t-323.5 -80q-179 0 -319.5 83t-218.5 228q-30 61 -48 134.5t-21 106t-3 52.5zM372 1715q5 17 23 24h-4l332 190q5 3 20 3t21 -3
l338 -180h-4q19 -8 25 -22t-5 -29v2l-88 -150q-21 -21 -57 -14l-230 129q-29 -17 -101 -60.5t-110 -64.5q-11 -5 -32.5 -1t-32.5 15l-90 134v-2q-10 12 -5 29zM442 584q0 -80 43 -164q79 -141 254 -141q177 0 252 141q19 36 30.5 78.5t13 60.5t1.5 27v569h-594v-571z" />
    <glyph glyph-name="Udieresis" unicode="&#xdc;" horiz-adv-x="1515" 
d="M129 584v813q0 14 12.5 25.5t30.5 11.5h1133q19 0 31 -11.5t12 -25.5v-813q0 -21 -2.5 -53t-20.5 -106t-49 -136q-75 -149 -213.5 -229t-323.5 -80q-179 0 -319.5 83t-218.5 228q-30 61 -48 134.5t-21 106t-3 52.5zM375 1696q0 66 51 115t117 49q69 0 121.5 -49
t52.5 -115t-52.5 -115t-121.5 -49q-66 0 -117 49t-51 115zM442 584q0 -80 43 -164q79 -141 254 -141q177 0 252 141q19 36 30.5 78.5t13 60.5t1.5 27v569h-594v-571zM801 1696q0 66 51.5 115t120.5 49q68 0 119 -49t51 -115t-51 -115t-119 -49q-69 0 -120.5 49t-51.5 115z
" />
    <glyph glyph-name="Yacute" unicode="&#xdd;" horiz-adv-x="1320" 
d="M-22.5 1414.5q10.5 19.5 38.5 19.5h277q25 0 37 -15q61 -88 171.5 -239t141.5 -195l311 434q15 15 35 15h279q28 0 38.5 -19.5t-6.5 -38.5h3l-504 -706v-635q0 -13 -12 -24t-31 -11h-228q-18 0 -30.5 11t-12.5 24v635q-45 65 -138 194t-138 193q-37 51 -113.5 159.5
t-113.5 159.5h2q-17 19 -6.5 38.5zM371.5 1713.5q4.5 15.5 23.5 21.5q66 37 186.5 101.5t174.5 94.5q52 19 61 4l115 -182q4 -10 -3.5 -23.5t-19.5 -19.5h2l-364 -190q-55 -19 -68 -2l-100 168q-12 12 -7.5 27.5z" />
    <glyph glyph-name="Thorn" unicode="&#xde;" horiz-adv-x="1193" 
d="M127 35v518q0 14 12 25.5t31 11.5h145q-74 112 -188 299v510q0 14 12 25.5t31 11.5h227q18 0 30.5 -11.5t12.5 -25.5v-242h185q10 0 22.5 -0.5t47.5 -4.5t67.5 -11t76.5 -22t81.5 -36t75.5 -54.5t64.5 -74.5t43 -100.5t16.5 -128.5q0 -87 -24.5 -157t-60 -114
t-87.5 -76.5t-96.5 -48t-97 -24.5t-78 -10.5t-51.5 -1.5h-185v-258q0 -13 -12.5 -24t-30.5 -11h-227q-19 0 -31 11t-12 24zM487 858l168 -264q60 4 106 35.5t46 95.5q0 42 -20 70.5t-52 41t-58 17t-52 4.5h-138z" />
    <glyph glyph-name="germandbls" unicode="&#xdf;" horiz-adv-x="1212" 
d="M131 35v1347q0 14 11.5 24.5t29.5 10.5h444q10 0 28 -1t68.5 -9.5t97 -23t103 -46t97 -74.5t68.5 -113t28 -157q0 -113 -48 -187t-114 -110q50 -24 86 -60.5t52 -72t24.5 -67.5t9.5 -52v-20q0 -87 -27.5 -157t-71.5 -113t-97.5 -74.5t-107 -46t-97.5 -23t-71 -9.5l-28 -1
q-19 0 -30 11t-11 24v221q0 14 11 24.5t30 10.5q8 0 21 1t46.5 8t59.5 19.5t47 40t21 64.5t-20 64t-48.5 39t-57.5 19t-49 8l-20 1q-19 0 -30 11t-11 24v223q0 14 11 24.5t30 10.5q18 0 33.5 1t45.5 9t50.5 22t37 43.5t16.5 69.5q0 69 -57.5 103t-127.5 34h-163l-2 -1095
q0 -13 -11.5 -24t-29.5 -11h-236q-18 0 -29.5 11t-11.5 24z" />
    <glyph glyph-name="agrave" unicode="&#xe0;" 
d="M-23 49q88 226 271.5 697t271.5 696q10 23 39.5 23t40.5 -23l543 -1393q8 -19 -3 -34t-34 -15h-248q-12 0 -24 7.5t-15 17.5v-2l-55 141h-410l-51 -141v2q-3 -10 -15.5 -17.5t-27.5 -7.5h-244q-25 0 -36 14.5t-3 34.5zM303 1706q-5 16 6 31v-2l111 176q9 15 61 -4
l340 -195h-4q19 -8 25 -22.5t-6 -28.5v2l-99 -166q-15 -18 -65 0l-346 189q-18 4 -23 20zM436 412h246l-72 213q-37 126 -49 198q-18 -97 -51 -198z" />
    <glyph glyph-name="aacute" unicode="&#xe1;" 
d="M-23 49q88 226 271.5 697t271.5 696q10 23 39.5 23t40.5 -23l543 -1393q8 -19 -3 -34t-34 -15h-248q-12 0 -24 7.5t-15 17.5v-2l-55 141h-410l-51 -141v2q-3 -10 -15.5 -17.5t-27.5 -7.5h-244q-25 0 -36 14.5t-3 34.5zM283.5 1715.5q4.5 15.5 23.5 21.5
q66 37 186.5 101.5t174.5 94.5q52 19 61 4l115 -182q4 -10 -3.5 -23.5t-19.5 -19.5h2l-364 -190q-55 -19 -68 -2l-100 168q-12 12 -7.5 27.5zM436 412h246l-72 213q-37 126 -49 198q-18 -97 -51 -198z" />
    <glyph glyph-name="acircumflex" unicode="&#xe2;" 
d="M-23 49q88 226 271.5 697t271.5 696q10 23 39.5 23t40.5 -23l543 -1393q8 -19 -3 -34t-34 -15h-248q-12 0 -24 7.5t-15 17.5v-2l-55 141h-410l-51 -141v2q-3 -10 -15.5 -17.5t-27.5 -7.5h-244q-25 0 -36 14.5t-3 34.5zM188 1669.5q5 17.5 23 24.5h-4l332 190q4 3 19.5 3
t21.5 -3l338 -180h-5q19 -8 25.5 -22t-4.5 -29v2l-88 -150q-21 -21 -58 -14l-229 129q-29 -17 -101 -60.5t-110 -64.5q-11 -5 -32.5 -1t-32.5 15l-90 133v-2q-10 12 -5 29.5zM436 412h246l-72 213q-37 126 -49 198q-18 -97 -51 -198z" />
    <glyph glyph-name="atilde" unicode="&#xe3;" 
d="M-23 49q88 226 271.5 697t271.5 696q10 23 39.5 23t40.5 -23l543 -1393q8 -19 -3 -34t-34 -15h-248q-12 0 -24 7.5t-15 17.5v-2l-55 141h-410l-51 -141v2q-3 -10 -15.5 -17.5t-27.5 -7.5h-244q-25 0 -36 14.5t-3 34.5zM186 1606q17 111 82.5 169t159.5 58q97 0 172 -47h4
q43 -19 64 -19q17 0 30 35q6 10 24.5 16t37.5 3l147 -47h-4q20 -5 30 -18t3 -30l2 3q-33 -115 -92.5 -165.5t-147.5 -50.5q-71 0 -174 43l-26 9q-41 18 -54 18q-4 0 -12 -31q-8 -15 -24 -24t-33 -6l-158 43h2q-14 3 -23.5 15.5t-9.5 25.5zM436 412h246l-72 213
q-37 126 -49 198q-18 -97 -51 -198z" />
    <glyph glyph-name="adieresis" unicode="&#xe4;" 
d="M-23 49q88 226 271.5 697t271.5 696q10 23 39.5 23t40.5 -23l543 -1393q8 -19 -3 -34t-34 -15h-248q-12 0 -24 7.5t-15 17.5v-2l-55 141h-410l-51 -141v2q-3 -10 -15.5 -17.5t-27.5 -7.5h-244q-25 0 -36 14.5t-3 34.5zM188 1679q0 66 51 115t117 49q69 0 121.5 -49
t52.5 -115t-52.5 -114.5t-121.5 -48.5q-66 0 -117 48.5t-51 114.5zM436 412h246l-72 213q-37 126 -49 198q-18 -97 -51 -198zM614 1679q0 66 51.5 115t120.5 49q68 0 119 -49t51 -115t-51 -114.5t-119 -48.5q-69 0 -120.5 48.5t-51.5 114.5z" />
    <glyph glyph-name="aring" unicode="&#xe5;" horiz-adv-x="1167" 
d="M-4 49l485 1245q-92 26 -150.5 97t-58.5 178q0 69 26.5 124.5t69.5 89.5t98 52.5t112.5 18.5t112.5 -18t98 -52.5t69.5 -90t26.5 -124.5q0 -110 -58.5 -181t-150.5 -96l485 -1243q8 -19 -3 -34t-34 -15h-247q-12 0 -24 7.5t-15 17.5v-2l-56 141h-409l-51 -141v2
q-3 -10 -15.5 -17.5t-27.5 -7.5h-244q-25 0 -36 14.5t-3 34.5zM455 412h245l-71 213q-37 126 -49 198q-17 -90 -52 -198zM485 1569q0 -46 29.5 -72t65 -26.5t65 26t29.5 72.5q0 44 -29.5 70t-65 26.5t-65 -25t-29.5 -71.5z" />
    <glyph glyph-name="ae" unicode="&#xe6;" horiz-adv-x="1619" 
d="M14 17.5q-12 17.5 2 37.5l-2 -2l627 1352q13 26 45 29h778q19 0 31 -11.5t12 -25.5v-215q0 -13 -12 -24t-31 -11h-444v-281h352q19 0 32 -11.5t13 -25.5v-211q0 -13 -13 -23.5t-32 -10.5h-352v-301h467q18 0 30.5 -11t12.5 -24v-213q0 -13 -12.5 -24t-30.5 -11h-715
q-19 0 -31 11t-12 24v143h-303q-17 -29 -38 -83t-32 -77v2q-4 -7 -18 -13.5t-23 -6.5h-262q-27 0 -39 17.5zM545 446h184q0 30 2 91t6.5 175t7.5 220z" />
    <glyph glyph-name="ccedilla" unicode="&#xe7;" horiz-adv-x="1421" 
d="M76 721q0 196 97.5 364t267 267.5t370.5 99.5q152 0 285 -56t231 -157l-2 2q13 -12 13 -27.5t-13 -27.5l-162 -162q-12 -6 -28.5 -6t-26.5 6q-125 125 -297 125t-295 -125.5t-123 -302.5q0 -176 123 -300t295 -124q168 0 293 125q12 8 31 8t32 -8l160 -168l-2 2
q13 -11 13 -26t-13 -27q-48 -50 -119 -100t-141 -76q92 -60 92 -181q0 -149 -106.5 -237t-272.5 -88t-270.5 94.5t-104.5 247.5q0 15 13 24t33 9h188q43 0 43 -33q0 -41 28 -63.5t70 -22.5q40 0 70.5 33.5t30.5 78.5q0 38 -22.5 67.5t-53.5 37.5q-196 6 -363 104
t-265.5 263.5t-98.5 359.5z" />
    <glyph glyph-name="egrave" unicode="&#xe8;" horiz-adv-x="1204" 
d="M127 35v1362q0 14 12 25.5t31 11.5h891q18 0 30.5 -11.5t12.5 -25.5v-219q0 -14 -12.5 -25.5t-30.5 -11.5h-621v-275h525q18 0 29.5 -11.5t11.5 -25.5v-221q0 -13 -11.5 -24t-29.5 -11h-525v-274h637q19 0 32 -11.5t13 -25.5v-227q0 -13 -13 -24t-32 -11h-907
q-19 0 -31 11t-12 24zM366.5 1724q-4.5 16 6.5 31v-2l110 176q9 16 62 -4l340 -194h-4q19 -8 24.5 -23t-6.5 -29v2l-98 -165q-16 -19 -66 0l-346 188q-18 4 -22.5 20z" />
    <glyph glyph-name="eacute" unicode="&#xe9;" horiz-adv-x="1204" 
d="M127 35v1362q0 14 12 25.5t31 11.5h891q18 0 30.5 -11.5t12.5 -25.5v-219q0 -14 -12.5 -25.5t-30.5 -11.5h-621v-275h525q18 0 29.5 -11.5t11.5 -25.5v-221q0 -13 -11.5 -24t-29.5 -11h-525v-274h637q19 0 32 -11.5t13 -25.5v-227q0 -13 -13 -24t-32 -11h-907
q-19 0 -31 11t-12 24zM373.5 1725.5q4.5 15.5 23.5 21.5q67 37 188.5 103t172.5 94q52 19 61 4l115 -183q4 -10 -3.5 -23.5t-19.5 -19.5h2l-364 -190q-55 -19 -68 -2l-100 168q-12 12 -7.5 27.5z" />
    <glyph glyph-name="ecircumflex" unicode="&#xea;" horiz-adv-x="1204" 
d="M127 35v1362q0 14 12 25.5t31 11.5h891q18 0 30.5 -11.5t12.5 -25.5v-219q0 -14 -12.5 -25.5t-30.5 -11.5h-621v-275h525q18 0 29.5 -11.5t11.5 -25.5v-221q0 -13 -11.5 -24t-29.5 -11h-525v-274h637q19 0 32 -11.5t13 -25.5v-227q0 -13 -13 -24t-32 -11h-907
q-19 0 -31 11t-12 24zM276 1717q5 17 23 24h-4l332 190q5 3 20 3t21 -3l338 -180h-5q19 -8 25.5 -22t-4.5 -29v2l-88 -150q-21 -21 -57 -14l-230 129q-29 -17 -101 -60.5t-110 -64.5q-11 -5 -32.5 -1t-32.5 15l-90 134v-2q-10 12 -5 29z" />
    <glyph glyph-name="edieresis" unicode="&#xeb;" horiz-adv-x="1204" 
d="M127 35v1362q0 14 12 25.5t31 11.5h891q18 0 30.5 -11.5t12.5 -25.5v-219q0 -14 -12.5 -25.5t-30.5 -11.5h-621v-275h525q18 0 29.5 -11.5t11.5 -25.5v-221q0 -13 -11.5 -24t-29.5 -11h-525v-274h637q19 0 32 -11.5t13 -25.5v-227q0 -13 -13 -24t-32 -11h-907
q-19 0 -31 11t-12 24zM254 1694q0 66 51 115t117 49q69 0 121.5 -49t52.5 -115t-52.5 -115t-121.5 -49q-66 0 -117 49t-51 115zM680 1694q0 66 51.5 115t120.5 49q68 0 119 -49t51 -115t-51 -115t-119 -49q-69 0 -120.5 49t-51.5 115z" />
    <glyph glyph-name="igrave" unicode="&#xec;" horiz-adv-x="573" 
d="M10 1740.5q-5 16.5 6 31.5v-3l111 177q9 15 61 -4l340 -195h-4q19 -8 25 -22.5t-6 -28.5v2l-99 -166q-15 -18 -65 0l-346 188q-18 4 -23 20.5zM123 35v1347q0 14 12.5 24.5t30.5 10.5h223q19 0 31 -10.5t12 -24.5v-1347q0 -13 -12 -24t-31 -11h-223q-18 0 -30.5 11
t-12.5 24z" />
    <glyph glyph-name="iacute" unicode="&#xed;" horiz-adv-x="573" 
d="M-1 1719.5q5 15.5 24 21.5q66 37 186.5 102t173.5 94q52 19 61 5l115 -183q4 -10 -3 -23.5t-19 -19.5h2l-365 -190q-55 -19 -68 -2l-100 168q-12 12 -7 27.5zM123 35v1347q0 14 12.5 24.5t30.5 10.5h223q19 0 31 -10.5t12 -24.5v-1347q0 -13 -12 -24t-31 -11h-223
q-18 0 -30.5 11t-12.5 24z" />
    <glyph glyph-name="icircumflex" unicode="&#xee;" horiz-adv-x="573" 
d="M-97 1686q5 17 23 24h-4l332 191q4 3 19.5 3t21.5 -3l338 -181h-4q19 -8 25 -22t-5 -29v2l-88 -149q-22 -22 -57 -15l-230 129q-29 -17 -101 -60.5t-110 -64.5q-11 -5 -32.5 -0.5t-32.5 15.5l-90 133v-2q-10 12 -5 29zM123 35v1347q0 14 12.5 24.5t30.5 10.5h223
q19 0 31 -10.5t12 -24.5v-1347q0 -13 -12 -24t-31 -11h-223q-18 0 -30.5 11t-12.5 24z" />
    <glyph glyph-name="idieresis" unicode="&#xef;" horiz-adv-x="573" 
d="M-96 1677q0 66 51 115t117 49q69 0 121.5 -49t52.5 -115t-52.5 -115t-121.5 -49q-66 0 -117 49t-51 115zM123 35v1347q0 14 12.5 24.5t30.5 10.5h223q19 0 31 -10.5t12 -24.5v-1347q0 -13 -12 -24t-31 -11h-223q-18 0 -30.5 11t-12.5 24zM330 1677q0 66 51.5 115
t120.5 49q68 0 119 -49t51 -115t-51 -115t-119 -49q-69 0 -120.5 49t-51.5 115z" />
    <glyph glyph-name="eth" unicode="&#xf0;" horiz-adv-x="1355" 
d="M-16 612v181q0 14 12.5 25t30.5 11h102v541q0 15 11.5 26t31.5 11h223q82 0 154 -6t158.5 -25t156.5 -49.5t138 -85t114 -126.5t74.5 -177.5t28.5 -235.5q0 -125 -28 -228t-74 -174.5t-113 -126t-138 -87t-156 -52.5t-159.5 -27t-155.5 -7h-223q-20 0 -31.5 11t-11.5 24
v543h-102q-18 0 -30.5 10t-12.5 24zM379.5 277q9.5 13 26.5 8h8q22 0 22 -19v-14q0 -13 -13.5 -18t-25.5 4l-14 16q-13 10 -3.5 23zM436 283h29q34 0 68 3t79.5 14t84.5 29t79 50t68 74.5t45.5 106.5t17.5 142t-17 142t-44 107t-65 75.5t-76.5 50.5t-82.5 29t-78 14.5
t-69 3.5h-39v-295h209q18 0 30.5 -11t12.5 -25v-181q0 -14 -12.5 -24t-30.5 -10h-209v-295z" />
    <glyph glyph-name="ntilde" unicode="&#xf1;" horiz-adv-x="1519" 
d="M129 35v1362q0 14 12.5 25.5t30.5 11.5h231q23 0 35 -15q107 -154 304.5 -434t295.5 -420v832q0 14 12 25.5t31 11.5h226q19 0 31 -11.5t12 -25.5v-1362q0 -13 -12 -24t-31 -11h-230q-24 0 -35 14q-59 84 -267.5 383t-330.5 473v-835q0 -13 -12.5 -24t-30.5 -11h-229
q-18 0 -30.5 11t-12.5 24zM379 1608q17 111 82.5 169t159.5 58q97 0 172 -47h4q43 -19 63 -19q18 0 31 35q6 10 24 16t37 3l148 -47h-4q20 -5 29.5 -17.5t2.5 -29.5l2 2q-33 -115 -92 -165t-147 -50q-71 0 -174 43l-27 8q-41 18 -53 18q-4 0 -12 -31q-8 -15 -24.5 -24
t-33.5 -6l-157 43h2q-14 3 -23.5 15.5t-9.5 25.5z" />
    <glyph glyph-name="ograve" unicode="&#xf2;" horiz-adv-x="1632" 
d="M82 711q0 110 27.5 214.5t85.5 197.5t140 163t198.5 111t254.5 41q136 0 252 -41t198.5 -111t140.5 -163t86 -197.5t28 -214.5t-28 -215t-86 -198t-140.5 -163.5t-198.5 -111.5t-252 -41q-138 0 -254.5 41t-198.5 111.5t-140 164t-85.5 198t-27.5 214.5zM397 707
q0 -84 25 -161t72.5 -139.5t123.5 -99.5t170 -37q75 0 139.5 24.5t110 66.5t78.5 97.5t48.5 119t15.5 129.5q0 67 -15.5 131t-48.5 120.5t-78.5 99t-110 67t-139.5 24.5q-94 0 -170 -37.5t-123.5 -100.5t-72.5 -141t-25 -163zM536.5 1740.5q-4.5 16.5 6.5 31.5v-3l110 177
q9 16 62 -4l340 -195h-4q19 -8 24.5 -22.5t-6.5 -28.5v2l-98 -166q-16 -19 -66 0l-346 188q-18 4 -22.5 20.5z" />
    <glyph glyph-name="oacute" unicode="&#xf3;" horiz-adv-x="1632" 
d="M82 711q0 110 27.5 214.5t85.5 197.5t140 163t198.5 111t254.5 41q136 0 252 -41t198.5 -111t140.5 -163t86 -197.5t28 -214.5t-28 -215t-86 -198t-140.5 -163.5t-198.5 -111.5t-252 -41q-138 0 -254.5 41t-198.5 111.5t-140 164t-85.5 198t-27.5 214.5zM397 707
q0 -84 25 -161t72.5 -139.5t123.5 -99.5t170 -37q75 0 139.5 24.5t110 66.5t78.5 97.5t48.5 119t15.5 129.5q0 67 -15.5 131t-48.5 120.5t-78.5 99t-110 67t-139.5 24.5q-94 0 -170 -37.5t-123.5 -100.5t-72.5 -141t-25 -163zM541.5 1721.5q4.5 15.5 23.5 21.5
q66 37 186.5 101.5t174.5 94.5q52 19 61 5l115 -183q4 -10 -3.5 -23.5t-19.5 -19.5h2l-364 -190q-55 -19 -68 -2l-100 168q-12 12 -7.5 27.5z" />
    <glyph glyph-name="ocircumflex" unicode="&#xf4;" horiz-adv-x="1632" 
d="M82 711q0 110 27.5 214.5t85.5 197.5t140 163t198.5 111t254.5 41q136 0 252 -41t198.5 -111t140.5 -163t86 -197.5t28 -214.5t-28 -215t-86 -198t-140.5 -163.5t-198.5 -111.5t-252 -41q-138 0 -254.5 41t-198.5 111.5t-140 164t-85.5 198t-27.5 214.5zM397 707
q0 -84 25 -161t72.5 -139.5t123.5 -99.5t170 -37q75 0 139.5 24.5t110 66.5t78.5 97.5t48.5 119t15.5 129.5q0 67 -15.5 131t-48.5 120.5t-78.5 99t-110 67t-139.5 24.5q-94 0 -170 -37.5t-123.5 -100.5t-72.5 -141t-25 -163zM431.5 1694q5.5 17 23.5 24h-4l331 191
q4 3 19.5 3t21.5 -3l338 -180h-4q19 -8 25.5 -22.5t-4.5 -29.5v2l-88 -149q-21 -21 -58 -14l-229 129q-29 -17 -101 -60.5t-110 -64.5q-11 -5 -33 -1t-33 15l-90 133v-2q-10 12 -4.5 29z" />
    <glyph glyph-name="otilde" unicode="&#xf5;" horiz-adv-x="1632" 
d="M82 711q0 110 27.5 214.5t85.5 197.5t140 163t198.5 111t254.5 41q136 0 252 -41t198.5 -111t140.5 -163t86 -197.5t28 -214.5t-28 -215t-86 -198t-140.5 -163.5t-198.5 -111.5t-252 -41q-138 0 -254.5 41t-198.5 111.5t-140 164t-85.5 198t-27.5 214.5zM397 707
q0 -84 25 -161t72.5 -139.5t123.5 -99.5t170 -37q75 0 139.5 24.5t110 66.5t78.5 97.5t48.5 119t15.5 129.5q0 67 -15.5 131t-48.5 120.5t-78.5 99t-110 67t-139.5 24.5q-94 0 -170 -37.5t-123.5 -100.5t-72.5 -141t-25 -163zM424 1620q17 111 82.5 169t159.5 58
q97 0 172 -47h4q40 -18 63 -18q18 0 31 35q6 10 24 15.5t37 2.5l148 -47h-4q20 -5 30 -18t3 -29l2 2q-33 -114 -92.5 -164.5t-147.5 -50.5q-71 0 -174 43l-27 8q-41 18 -53 18q-4 0 -12 -30q-8 -15 -24.5 -24.5t-33.5 -6.5l-157 43h2q-14 3 -23.5 15.5t-9.5 25.5z" />
    <glyph glyph-name="odieresis" unicode="&#xf6;" horiz-adv-x="1632" 
d="M82 711q0 110 27.5 214.5t85.5 197.5t140 163t198.5 111t254.5 41q136 0 252 -41t198.5 -111t140.5 -163t86 -197.5t28 -214.5t-28 -215t-86 -198t-140.5 -163.5t-198.5 -111.5t-252 -41q-138 0 -254.5 41t-198.5 111.5t-140 164t-85.5 198t-27.5 214.5zM397 707
q0 -84 25 -161t72.5 -139.5t123.5 -99.5t170 -37q75 0 139.5 24.5t110 66.5t78.5 97.5t48.5 119t15.5 129.5q0 67 -15.5 131t-48.5 120.5t-78.5 99t-110 67t-139.5 24.5q-94 0 -170 -37.5t-123.5 -100.5t-72.5 -141t-25 -163zM432 1663q0 66 51 115t117 49q69 0 121.5 -49
t52.5 -115t-52.5 -115t-121.5 -49q-66 0 -117 49t-51 115zM858 1663q0 66 51.5 115t120.5 49q68 0 119 -49t51 -115t-51 -115t-119 -49q-69 0 -120.5 49t-51.5 115z" />
    <glyph glyph-name="divide" unicode="&#xf7;" horiz-adv-x="1003" 
d="M61 594h875v272h-875v-272zM322 367q0 70 52 120t126 50t126 -50t52 -120t-52 -120t-126 -50t-126 50t-52 120zM322 1102q0 68 52 118t126 50t126 -50t52 -118q0 -72 -51.5 -122t-126.5 -50t-126.5 50t-51.5 122z" />
    <glyph glyph-name="oslash" unicode="&#xf8;" horiz-adv-x="1597" 
d="M82 711q0 110 27.5 214.5t85.5 197.5t140 163t198.5 111t254.5 41q108 0 222 -31l61 104q9 19 39 19h227q24 0 35 -16t2 -37l-114 -211q114 -102 173.5 -248.5t59.5 -306.5q0 -110 -28 -215t-86 -198t-140.5 -163.5t-198.5 -111.5t-252 -41q-134 0 -237 34l-68 -120
q-4 -10 -16.5 -15.5t-22.5 -5.5h-221q-26 0 -38 17.5t1 37.5l-2 -2q22 40 73 127.5t56 96.5q-114 103 -172.5 250t-58.5 309zM397 707q0 -165 84 -283l398 715q-48 10 -91 10q-94 0 -170 -37.5t-123.5 -100.5t-72.5 -141t-25 -163zM684 283q54 -13 104 -13q75 0 139.5 24.5
t110 66.5t78.5 97.5t48.5 119t15.5 129.5q0 169 -95 297z" />
    <glyph glyph-name="ugrave" unicode="&#xf9;" horiz-adv-x="1398" 
d="M131 463v907q0 14 12.5 25.5t30.5 11.5h223q18 0 30.5 -11.5t12.5 -25.5v-903q13 -88 80 -140.5t156 -52.5q95 0 164 49.5t69 139.5v907q0 14 12.5 25.5t30.5 11.5h226q17 0 29 -11.5t12 -25.5v-907q0 -149 -72 -259.5t-194 -167t-277 -56.5q-151 0 -274.5 58t-197 169
t-73.5 256zM393 1679q-5 16 6 31v-2l111 176q9 15 61 -4l340 -194h-4q19 -8 25 -23t-6 -29v2l-99 -166q-15 -18 -65 0l-346 189q-18 4 -23 20z" />
    <glyph glyph-name="uacute" unicode="&#xfa;" horiz-adv-x="1398" 
d="M131 463v907q0 14 12.5 25.5t30.5 11.5h223q18 0 30.5 -11.5t12.5 -25.5v-903q13 -88 80 -140.5t156 -52.5q95 0 164 49.5t69 139.5v907q0 14 12.5 25.5t30.5 11.5h226q17 0 29 -11.5t12 -25.5v-907q0 -149 -72 -259.5t-194 -167t-277 -56.5q-151 0 -274.5 58t-197 169
t-73.5 256zM427 1657.5q5 15.5 24 21.5q67 38 189 104t171 93q52 19 61 4l115 -182q4 -10 -3 -23.5t-19 -19.5h2l-365 -191q-54 -19 -67 -2l-101 168q-12 12 -7 27.5z" />
    <glyph glyph-name="ucircumflex" unicode="&#xfb;" horiz-adv-x="1398" 
d="M131 463v907q0 14 12.5 25.5t30.5 11.5h223q18 0 30.5 -11.5t12.5 -25.5v-903q13 -88 80 -140.5t156 -52.5q95 0 164 49.5t69 139.5v907q0 14 12.5 25.5t30.5 11.5h226q17 0 29 -11.5t12 -25.5v-907q0 -149 -72 -259.5t-194 -167t-277 -56.5q-151 0 -274.5 58t-197 169
t-73.5 256zM314.5 1649q5.5 17 23.5 24h-4l332 191q4 3 19.5 3t21.5 -3l337 -181h-4q19 -8 25.5 -22t-4.5 -29v2l-88 -149q-22 -22 -58 -15l-229 129q-28 -16 -100 -59t-111 -65q-11 -5 -32.5 -1t-32.5 15l-91 133v-2q-10 12 -4.5 29z" />
    <glyph glyph-name="udieresis" unicode="&#xfc;" horiz-adv-x="1398" 
d="M131 463v907q0 14 12.5 25.5t30.5 11.5h223q18 0 30.5 -11.5t12.5 -25.5v-903q13 -88 80 -140.5t156 -52.5q95 0 164 49.5t69 139.5v907q0 14 12.5 25.5t30.5 11.5h226q17 0 29 -11.5t12 -25.5v-907q0 -149 -72 -259.5t-194 -167t-277 -56.5q-151 0 -274.5 58t-197 169
t-73.5 256zM315 1642q0 66 51 115t117 49q69 0 121.5 -49t52.5 -115t-52.5 -114.5t-121.5 -48.5q-66 0 -117 48.5t-51 114.5zM741 1642q0 66 51.5 115t120.5 49q68 0 119 -49t51 -115t-51 -114.5t-119 -48.5q-69 0 -120.5 48.5t-51.5 114.5z" />
    <glyph glyph-name="yacute" unicode="&#xfd;" horiz-adv-x="1320" 
d="M-16.5 1398.5q10.5 18.5 39.5 18.5h272q23 0 35 -12q57 -84 162 -232t145 -206l305 438q20 12 33 12h274q28 0 39 -18.5t-6 -38.5h2l-493 -703v-622q0 -13 -12.5 -24t-30.5 -11h-224q-19 0 -31 11t-12 24v622l-172 244l-323 459h2q-15 20 -4.5 38.5zM379.5 1674.5
q4.5 15.5 23.5 21.5q66 37 186.5 101.5t174.5 94.5q52 19 61 4l115 -182q4 -10 -3 -23.5t-19 -19.5h2l-365 -190q-55 -19 -68 -2l-100 168q-12 12 -7.5 27.5z" />
    <glyph glyph-name="thorn" unicode="&#xfe;" horiz-adv-x="1187" 
d="M131 31v1339q0 14 11.5 25.5t29.5 11.5h223q20 0 31.5 -11t11.5 -26v-223h180q10 0 28 -1t68.5 -9.5t97 -23t103 -46.5t97 -75t68.5 -113.5t28 -157.5t-27 -158t-70 -114.5t-95.5 -75.5t-105 -46.5t-95.5 -23t-70 -9.5l-27 -1h-180v-262q0 -13 -11.5 -24t-31.5 -11h-223
q-18 0 -29.5 11t-11.5 24zM438 588h180q4 0 10.5 0.5t25.5 3t36.5 7t38.5 14.5t36 23.5t25.5 35.5t10.5 49q0 37 -19 64t-45.5 39t-53.5 19t-46 8l-19 1h-180v-264z" />
    <glyph glyph-name="ydieresis" unicode="&#xff;" horiz-adv-x="1320" 
d="M-16.5 1398.5q10.5 18.5 39.5 18.5h272q23 0 35 -12q57 -84 162 -232t145 -206l305 438q20 12 33 12h274q28 0 39 -18.5t-6 -38.5h2l-493 -703v-622q0 -13 -12.5 -24t-30.5 -11h-224q-19 0 -31 11t-12 24v622l-172 244l-323 459h2q-15 20 -4.5 38.5zM276 1640
q0 66 51 115t117 49q69 0 121.5 -49t52.5 -115t-52.5 -114.5t-121.5 -48.5q-66 0 -117 48.5t-51 114.5zM702 1640q0 66 51.5 115t120.5 49q68 0 119 -49t51 -115t-51 -114.5t-119 -48.5q-69 0 -120.5 48.5t-51.5 114.5z" />
    <glyph glyph-name="OE" unicode="&#x152;" horiz-adv-x="1937" 
d="M100 719q0 111 27.5 217t85 199.5t138.5 164t196 111.5t250 41q87 0 172 -18h757q18 0 30.5 -11.5t12.5 -25.5v-215q0 -14 -12.5 -25.5t-30.5 -11.5h-514v-279h426q18 0 30.5 -11.5t12.5 -25.5v-217q0 -13 -12.5 -23.5t-30.5 -10.5h-426v-283h539q19 0 32 -11.5t13 -25.5
v-223q0 -13 -13 -24t-32 -11l-790 2q-75 -16 -164 -16q-135 0 -250 41t-196 111.5t-138.5 164t-85 199.5t-27.5 217zM432 717q0 -88 23.5 -169t67 -147t115 -105.5t159.5 -39.5q67 0 112 14v891q-63 17 -112 17q-88 0 -159.5 -39.5t-115 -105.5t-67 -147t-23.5 -169z" />
    <glyph glyph-name="oe" unicode="&#x153;" horiz-adv-x="1937" 
d="M109 705q0 137 43.5 263.5t126 229t215.5 164t297 61.5q76 0 170 -16h739q19 0 31 -11.5t12 -25.5v-213q0 -13 -12 -24t-31 -11h-502v-274h418q17 0 29 -10.5t12 -24.5v-211q0 -13 -12 -24t-29 -11h-418v-278h531q18 0 30.5 -10.5t12.5 -24.5v-219q0 -13 -12.5 -24
t-30.5 -11l-777 2q-75 -16 -161 -16q-132 0 -245 40.5t-192 109.5t-135.5 161t-83 195.5t-26.5 212.5zM432 702q0 -116 39 -215.5t122.5 -166t197.5 -66.5q58 0 110 12v875q-55 12 -110 12q-86 0 -156 -38.5t-113.5 -103t-66.5 -144t-23 -165.5z" />
    <glyph glyph-name="Ydieresis" unicode="&#x178;" horiz-adv-x="1320" 
d="M-22.5 1414.5q10.5 19.5 38.5 19.5h277q25 0 37 -15q61 -88 171.5 -239t141.5 -195l311 434q15 15 35 15h279q28 0 38.5 -19.5t-6.5 -38.5h3l-504 -706v-635q0 -13 -12 -24t-31 -11h-228q-18 0 -30.5 11t-12.5 24v635q-45 65 -138 194t-138 193q-37 51 -113.5 159.5
t-113.5 159.5h2q-17 19 -6.5 38.5zM276 1692q0 66 51 114.5t117 48.5q69 0 121.5 -48.5t52.5 -114.5t-52.5 -115t-121.5 -49q-66 0 -117 49t-51 115zM702 1692q0 66 51.5 114.5t120.5 48.5q68 0 119 -48.5t51 -114.5t-51 -115t-119 -49q-69 0 -120.5 49t-51.5 115z" />
    <glyph glyph-name="circumflex" unicode="&#x2c6;" horiz-adv-x="802" 
d="M24 1270q5 17 23 24h-4l332 191q5 3 20 3t21 -3l338 -180h-4q19 -8 25 -22.5t-5 -29.5v2l-88 -149q-21 -21 -57 -14l-230 129q-29 -17 -101 -60.5t-110 -64.5q-11 -5 -32.5 -1t-32.5 15l-90 133v-2q-10 12 -5 29z" />
    <glyph glyph-name="tilde" unicode="&#x2dc;" horiz-adv-x="802" 
d="M23 1225q17 111 82 169t159 58q97 0 172 -47h4q43 -19 64 -19q18 0 31 35q6 10 24 16t37 3l147 -47h-4q20 -5 30 -18t3 -29l2 2q-33 -115 -92 -165t-147 -50q-72 0 -175 43l-26 8q-41 18 -53 18q-5 0 -13 -31q-8 -15 -24 -24t-33 -6l-158 43h2q-14 3 -23 15.5t-9 25.5z
" />
    <glyph glyph-name="uni2000" unicode="&#x2000;" horiz-adv-x="977" 
 />
    <glyph glyph-name="uni2001" unicode="&#x2001;" horiz-adv-x="1954" 
 />
    <glyph glyph-name="uni2002" unicode="&#x2002;" horiz-adv-x="977" 
 />
    <glyph glyph-name="uni2003" unicode="&#x2003;" horiz-adv-x="1954" 
 />
    <glyph glyph-name="uni2004" unicode="&#x2004;" horiz-adv-x="651" 
 />
    <glyph glyph-name="uni2005" unicode="&#x2005;" horiz-adv-x="488" 
 />
    <glyph glyph-name="uni2006" unicode="&#x2006;" horiz-adv-x="325" 
 />
    <glyph glyph-name="uni2007" unicode="&#x2007;" horiz-adv-x="325" 
 />
    <glyph glyph-name="uni2008" unicode="&#x2008;" horiz-adv-x="244" 
 />
    <glyph glyph-name="uni2009" unicode="&#x2009;" horiz-adv-x="390" 
 />
    <glyph glyph-name="uni200A" unicode="&#x200a;" horiz-adv-x="108" 
 />
    <glyph glyph-name="uni2010" unicode="&#x2010;" horiz-adv-x="907" 
d="M47 616v207q0 14 13 25.5t32 11.5h684q20 0 31.5 -11t11.5 -26v-207q0 -13 -11.5 -23.5t-31.5 -10.5h-684q-19 0 -32 10.5t-13 23.5z" />
    <glyph glyph-name="uni2011" unicode="&#x2011;" horiz-adv-x="907" 
d="M47 616v207q0 14 13 25.5t32 11.5h684q20 0 31.5 -11t11.5 -26v-207q0 -13 -11.5 -23.5t-31.5 -10.5h-684q-19 0 -32 10.5t-13 23.5z" />
    <glyph glyph-name="figuredash" unicode="&#x2012;" horiz-adv-x="907" 
d="M47 616v207q0 14 13 25.5t32 11.5h684q20 0 31.5 -11t11.5 -26v-207q0 -13 -11.5 -23.5t-31.5 -10.5h-684q-19 0 -32 10.5t-13 23.5z" />
    <glyph glyph-name="endash" unicode="&#x2013;" horiz-adv-x="1042" 
d="M45 590v217q0 13 12.5 24t30.5 11h823q18 0 30.5 -11t12.5 -24v-217q0 -12 -12.5 -23.5t-30.5 -11.5h-823q-18 0 -30.5 11.5t-12.5 23.5z" />
    <glyph glyph-name="emdash" unicode="&#x2014;" horiz-adv-x="1185" 
d="M45 590v217q0 13 13 24t32 11h940q18 0 30.5 -11t12.5 -24v-217q0 -12 -12.5 -23.5t-30.5 -11.5h-940q-19 0 -32 11.5t-13 23.5z" />
    <glyph glyph-name="quotesinglbase" unicode="&#x201a;" horiz-adv-x="411" 
d="M18 141q0 63 48.5 109.5t115.5 46.5q92 0 136 -48.5t44 -125.5q0 -81 -47 -171.5t-110 -131.5q-23 -12 -44.5 -1t-21.5 34v135q-54 12 -87.5 54t-33.5 99z" />
    <glyph glyph-name="quotedblbase" unicode="&#x201e;" horiz-adv-x="806" 
d="M18 141q0 63 48.5 109.5t115.5 46.5q92 0 136 -48.5t44 -125.5q0 -81 -47 -171.5t-110 -131.5q-23 -12 -44.5 -1t-21.5 34v135q-54 12 -87.5 54t-33.5 99zM420 141q0 63 48.5 109.5t115.5 46.5q92 0 136 -48.5t44 -125.5q0 -81 -47.5 -171t-110.5 -132q-23 -12 -44 -1
t-21 34v135q-54 12 -87.5 54t-33.5 99z" />
    <glyph glyph-name="bullet" unicode="&#x2022;" horiz-adv-x="638" 
d="M41 717q0 102 76 174t178 72q107 0 180.5 -71.5t73.5 -174.5q0 -101 -74 -173.5t-180 -72.5q-102 0 -178 73.5t-76 172.5z" />
    <glyph glyph-name="ellipsis" unicode="&#x2026;" horiz-adv-x="1173" 
d="M20 145q0 65 48.5 112.5t115.5 47.5q71 0 119.5 -47.5t48.5 -112.5q0 -66 -48 -111.5t-120 -45.5q-68 0 -116 45.5t-48 111.5zM414 145q0 65 47.5 112.5t113.5 47.5q71 0 119.5 -47.5t48.5 -112.5q0 -66 -48 -111.5t-120 -45.5q-66 0 -113.5 45.5t-47.5 111.5zM809 145
q0 65 48 112.5t114 47.5q71 0 119.5 -47.5t48.5 -112.5q0 -66 -48 -111.5t-120 -45.5q-66 0 -114 45.5t-48 111.5z" />
    <glyph glyph-name="uni202F" unicode="&#x202f;" horiz-adv-x="390" 
 />
    <glyph glyph-name="guilsinglleft" unicode="&#x2039;" horiz-adv-x="643" 
d="M2 659q0 13 8 21l357 453q10 10 28 13t31 -7l145 -115q14 -11 16.5 -26t-9.5 -27l4 2l-228 -316l234 -280q9 -12 6.5 -26t-14.5 -25h2l-150 -121q-26 -19 -57 4l-365 428q-8 9 -8 22z" />
    <glyph glyph-name="guilsinglright" unicode="&#x203a;" horiz-adv-x="643" 
d="M16.5 351q-2.5 14 6.5 26l235 282l-229 314l4 -2q-11 13 -9 27.5t15 25.5l147 115q10 6 29.5 4.5t28.5 -10.5l356 -453q8 -8 8 -21t-8 -22q-141 -162 -364 -428q-32 -25 -56 -4l-149 121q-12 11 -14.5 25z" />
    <glyph glyph-name="uni205F" unicode="&#x205f;" horiz-adv-x="488" 
 />
    <glyph glyph-name="Euro" unicode="&#x20ac;" horiz-adv-x="1214" 
d="M-16 483v154q0 14 12.5 24.5t32.5 10.5h77v65h-77q-19 0 -32 11.5t-13 21.5v160q0 12 13 23.5t32 11.5h102q33 100 90 182.5t139 148t196 102t249 36.5q168 0 323 -84h-2q16 -8 21.5 -23t-4.5 -29l2 2l-103 -196q-12 -13 -30 -18t-31 1q-54 25 -92 36.5t-84 11.5
q-216 0 -330 -170h268q18 0 30.5 -11.5t12.5 -23.5v-160q0 -10 -13 -21.5t-30 -11.5h-350q0 -53 2 -65h348q18 0 30.5 -10.5t12.5 -24.5v-154q0 -14 -12.5 -24t-30.5 -10h-254q52 -68 134 -109t182 -41q101 0 194 41q49 15 60 -8l84 -238q4 -20 -29 -31h2q-135 -63 -311 -63
q-261 0 -428.5 122.5t-239.5 326.5h-108q-20 0 -32.5 10t-12.5 24z" />
    <glyph glyph-name="trademark" unicode="&#x2122;" horiz-adv-x="1323" 
d="M37 1311v86q0 14 12 25.5t29 11.5h366q19 0 32 -11.5t13 -25.5v-86q0 -14 -13 -25.5t-32 -11.5h-88v-453q0 -14 -13 -25.5t-32 -11.5h-96q-19 0 -32 11.5t-13 25.5v453h-92q-17 0 -29 11.5t-12 25.5zM518 811v594q0 11 10.5 20t22.5 9h117q8 0 32 -19l193 -371l186 373
q13 17 29 17h115q11 0 20.5 -9.5t9.5 -19.5v-594q0 -10 -9.5 -19.5t-20.5 -9.5h-113q-31 0 -31 29v236l-108 -224q-16 -16 -31 -16h-92q-15 0 -31 16l-119 236v-248q0 -29 -32 -29h-115q-12 0 -22.5 9t-10.5 20z" />
    <glyph glyph-name="uni25FC" unicode="&#x25fc;" horiz-adv-x="1413" 
d="M0 0v1413h1413v-1413h-1413z" />
    </font>
</defs>
</svg>
